<?xml version="1.0" encoding="UTF-8" standalone="no"?>
<!-- Created with Inkscape (http://www.inkscape.org/) -->
<svg xmlns:rdf="http://www.w3.org/1999/02/22-rdf-syntax-ns#" xmlns="http://www.w3.org/2000/svg" xmlns:cc="http://web.resource.org/cc/" xmlns:xlink="http://www.w3.org/1999/xlink" xmlns:dc="http://purl.org/dc/elements/1.1/" xmlns:svg="http://www.w3.org/2000/svg" xmlns:inkscape="http://www.inkscape.org/namespaces/inkscape" xmlns:sodipodi="http://sodipodi.sourceforge.net/DTD/sodipodi-0.dtd" xmlns:ns1="http://sozi.baierouge.fr" id="svg3541" viewBox="0 0 1000 150" version="1.0" inkscape:version="0.91 r13725">
  <defs id="defs3543">
    <filter id="filter9111" height="1.5818" width="1.5818" color-interpolation-filters="sRGB" y="-.29091" x="-.29091">
      <feGaussianBlur id="feGaussianBlur9113" stdDeviation="12.727273"/>
    </filter>
    <linearGradient id="linearGradient3710" y2="919.76" gradientUnits="userSpaceOnUse" x2="-1340" gradientTransform="matrix(.58648 0 0 .58648 1307.6 -473.68)" y1="1057.3" x1="-1341.4">
      <stop id="stop5136" style="stop-color:#6c94b1" offset="0"/>
      <stop id="stop5138" style="stop-color:#b3b3b3;stop-opacity:0" offset="1"/>
    </linearGradient>
  </defs>
  <g id="layer18">
    <path id="path6619" style="filter:url(#filter9111);fill:#fee872" d="m-1802 683.59a52.5 52.5 0 1 1 -105 0 52.5 52.5 0 1 1 105 0z" transform="translate(2433.2 -600.77)"/>
  </g>
  <g id="layer17">
    <path id="path4607" style="fill-rule:evenodd;fill:#cccccc" d="m999.62 127.09-0.1467-16.781h-6.8426v15.966h-3.7324v-19.699h-6.4279v14.722h-5.1838v-11.612h-5.5986v10.99h-5.1839v-14.722s-4.3544-11.612-7.8793 0v14.722h-1.0369v-24.675l-6.9726 4.0257v21.997h-2.9804v-21.876h-1.6587v-3.7324h-5.0802v3.1103h-2.4882v21.979h-2.6957v-17.314l-1.4515-0.10367-1.5551-10.886-1.6588 10.99h-2.0734v17.314l-2.1774-0.20733v-23.016l-4.1723-7.2268-3.8108 0.07305-4.5403 7.864v22.928h-4.8942v-26.956h-7.3611v26.852h-1.7625v-24.571h-5.8059v23.535h-0.8293v-20.735l-5.4449 1.4589v19.38h-6.0633v-23.742l-1.9101-3.3084-1.9849 3.4379v23.301h-5.6433v-24.571h-6.2207v24.157h-1.2441v-26.749h-10.056v26.23h-4.0434v-14.722h-5.7022v13.996h-0.8294v-26.127h-6.739v26.334h-1.8663v-24.157h-8.1904v24.571h-3.836v-24.343h-2.4398v-6.5979h-4.3253v6.5979h-3.1524v24.486h-4.1053v-16.422h-6.9646v16.495h-6.5246v-22.506s-3.8121-4.6919-8.6506-0.51318c0.0734 2.2726 0 23.239 0 23.239h-1.6128v-19.721h-4.9852l-5.0379 18.802h-2.5864v-8.0984l-1.0996-2.7125-0.9531 2.7125h-5.425l-0.6231-2.4651-0.9622 2.4559v8.0367h-3.6563v-12.426h-4.5454v12.17h-2.0892v-21.113h-6.4514v20.82h-4.5451v-23.899h-7.1846v5.1317h-2.6392v-5.8648h-6.4512v24.486h-1.7595v-14.955h-4.252v14.515h-2.9325v-19.207h-4.8384v18.914h-4.8385v-23.313h-5.5716l0.2933 32.697 296.68 0.15319z"/>
    <path id="path4611" style="fill-rule:evenodd;fill:#b3b3b3" d="m570.86 130.35 0.1466-16.781h6.8427v15.966h3.7323v-19.699h6.4279v14.722h5.184v-11.612h5.5985v10.99h5.1838v-14.722s4.3545-11.612 7.8794 0v14.722h1.0369v-24.675l6.9725 4.0256v21.997h2.9804v-21.876h1.6588v-3.7324h5.0801v3.1103h2.4882v21.979h2.6957v-17.314l1.4515-0.10367 1.5551-10.886 1.6589 10.99h2.0736v17.314l2.1772-0.20733v-23.016l4.1723-7.2267 3.8107 0.07303 4.5403 7.864v22.928h4.8943v-26.956h7.361v26.852h1.7626v-24.571h5.8059v23.535h0.8294v-20.735l5.4447 1.4589v19.38h6.0634v-23.742l1.9101-3.3084 1.9848 3.4379v23.301h5.6433v-24.571h6.2207v24.157h1.2441v-26.749h10.056v26.23h4.0435v-14.722h5.7023v13.996h0.8292v-26.127h6.7391v26.334h1.8662v-24.157h8.1905v24.571h3.836v-24.343h2.4398v-6.598h4.3252v6.598h3.1524v24.486h4.1054v-16.422h6.9645v16.495h6.5246v-22.506s3.8121-4.6919 8.6507-0.51317c-0.0733 2.2726 0 23.239 0 23.239h1.6128v-19.721h4.9851l5.038 18.802h2.5863v-8.0984l1.0996-2.7125 0.9531 2.7125h5.425l0.6231-2.4651 0.9622 2.4559v8.0366h3.6563v-12.426h4.5454v12.17h2.0892v-21.113h6.4514v20.82h4.5452v-23.899h7.1845v5.1317h2.6392v-5.8648h6.4514v24.486h1.7593v-14.955h4.2521v14.516h2.9324v-19.207h4.8384v18.914h4.8386v-23.313h5.5715l-0.2932 32.697-296.68 0.1532z"/>
    <path id="path6551" style="fill-rule:evenodd;fill:#cccccc" d="m424.66 132.09 0.1466-16.781h6.8428v15.966h3.7322v-19.699h6.428v14.722h5.1839v-11.612h5.5985v10.99h5.1838v-14.722s4.3545-11.612 7.8794 0v14.722h1.0368v-24.675l6.9726 4.0257v21.997h2.9805v-21.876h1.6588v-3.7324h5.0801v3.1104h2.4882v21.979h2.6956v-17.314l1.4515-0.10368 1.5552-10.886 1.6589 10.99h2.0735v17.314l2.1772-0.20732 2.25-25.829 2.8598-4.4142 2.8732 0.07302 3.2903 4.3641 1.25 26.428h4.8943v-26.956h7.3611v26.852h1.7625v-24.571h5.8059v23.535h0.8294v-20.735l5.4447 1.4589v19.38h6.0635v-23.742l1.9101-3.3084 1.9847 3.4379v23.301h5.6433v-24.571h6.2207v24.157h1.2441v-26.749h10.057v26.23h4.0435v-14.722h5.7021v13.996h0.8294v-26.127h6.7391v26.334h1.8662v-24.157h8.1905v24.571h3.836v-24.343h2.4396v-6.598h4.3253v6.598h3.1523v24.486h4.1055v-16.422h6.9645v16.495h6.5247v-22.506s3.8121-4.6919 8.6506-0.51316c-0.0733 2.2726 0 23.239 0 23.239h1.6129v-19.72h4.985l5.038 18.802h2.5863v-8.0984l1.0997-2.7125 0.953 2.7125h5.425l0.6232-2.465 0.9622 2.4559v8.0366h3.6563v-12.426h4.5452v12.17h2.0894v-21.113h6.4513v20.82h4.5453v-23.899h7.1844v5.1317h2.6391v-5.8648h6.4514v24.486h1.7594v-14.955h4.2521v14.515h2.9324v-19.207h4.8385v18.914h4.8384v-23.313h5.5717l-0.2932 32.696-296.68 0.1532z"/>
    <path id="path6553" style="fill-rule:evenodd;fill:#cccccc" d="m170.65 129.07 0.1467-16.781h6.8428v15.966h3.7322v-19.699h6.428v14.722h5.1839v-11.612h5.5986v10.99h5.1837v-14.722s4.3546-11.612 7.8794 0v14.722h1.0369v-24.675l6.9725 4.0257v21.997h2.9805v-21.876h1.6588v-3.7324h5.0801v3.1104h2.4882v21.979h2.6956v-17.314l1.4515-0.10369 1.5552-10.886 1.6589 10.99h2.0734v17.314l2.1773-0.20732v-23.016l4.1724-7.2267 3.8106 0.07303 4.5404 7.8641v22.928h4.8943v-26.956h7.361v26.852h1.7625v-24.571h5.806v23.535h0.8293v-20.735l5.4447 1.459v19.38h6.0635v-23.742l1.9101-3.3084 1.9847 3.4378v23.301h5.6433v-24.571h6.2207v24.157h1.2441v-26.749h10.057v26.23h4.0435v-14.722h5.7022v13.996h0.8293v-26.127h6.7391v26.334h1.8662v-24.157h8.1905v24.571h3.836v-24.343h2.4397v-6.5979h4.3253v6.5979h3.1523v24.486h4.1054v-16.422h6.9645v16.495h6.5247v-22.506s3.8121-4.6919 8.6506-0.51317c-0.0733 2.2726 0 23.239 0 23.239h1.6129v-19.721h4.9851l5.038 18.802h2.5862v-8.0984l1.0997-2.7125 0.953 2.7125h5.425l0.6231-2.4651 0.9623 2.4559v8.0366h3.6563v-12.426h4.5452v12.17h2.0894v-21.113h6.4514v20.82h4.5452v-23.899h7.1845v5.1317h2.639v-5.8648h6.4514v24.486h1.7594v-14.955h4.2521v14.515h2.9324v-19.207h4.8385v18.914h4.8384v-23.313h5.5717l-0.2933 32.696-296.68 0.15319z"/>
    <path id="path6555" style="fill-rule:evenodd;fill:#e6e6e6" d="m477.83 129.17-0.1466-16.781h-6.8428v15.966h-3.7322v-19.699h-6.4281v14.722h-5.1838v-11.612h-5.5986v10.99h-5.1838v-14.722s-4.3544-11.612-7.8794 0v14.722h-1.0368v-24.675l-6.9725 4.0257v21.997h-2.9804v-21.876h-1.6588v-3.7324h-5.0801v3.1104h-2.4884v21.979h-2.6956v-17.314l-1.4514-0.10368-1.5551-10.886-1.6589 10.99h-2.0736v17.314l-2.1772-0.20732v-23.016l-4.1724-8.4697-3.8106 0.07302-4.5403 9.107v22.928h-4.8944v-26.956h-7.361v26.852h-1.7625v-24.571h-5.8059v23.535h-0.8295v-20.735l-5.4446 1.459v19.38h-6.0635v-23.742l-1.9101-3.3084-1.9847 3.4378v23.301h-5.6434v-24.571h-6.2206v24.157h-1.2441v-26.749h-10.057v26.23h-4.0434v-14.722h-5.7021v13.996h-0.8295v-26.127h-6.739v26.334h-1.8661v-24.157h-8.1906v24.571h-3.8359v-24.343h-2.4397v-6.598h-4.3254v6.598h-3.1523v24.486h-4.1055v-16.422h-6.9644v16.495h-6.5246v-22.506s-3.8122-4.6919-8.6506-0.51317c0.0732 2.2726 0 23.239 0 23.239h-1.613v-19.721h-4.985l-5.038 18.802h-2.5864v-8.0984l-1.0996-2.7125-0.953 2.7125h-5.425l-0.6231-2.4651-0.9623 2.4559v8.0366h-3.6563v-12.426h-4.5452v12.17h-2.0895v-21.113h-6.4512v20.82h-4.5453v-23.899h-7.1845v5.1317h-2.6392v-5.8648h-6.4512v24.486h-1.7595v-14.955h-4.2521v14.516h-2.9324v-19.207h-4.8385v18.914h-4.8384v-23.313h-5.5716l0.2932 32.697 296.68 0.15318z"/>
    <path id="path6557" style="fill-rule:evenodd;fill:#b3b3b3" d="m69.126 132.4 0.1466-16.781h6.8426v15.966h3.7323v-19.699h6.428v14.722h5.1839v-11.612h5.5986v10.99h5.1837v-14.722s4.3544-11.612 7.8795 0v14.722h1.0367v-24.675l6.9727 4.0257v21.997h2.9803v-21.876h1.6589v-3.7324h5.0802v3.1104h2.4882v21.979h2.6956v-17.314l1.4514-0.10368 1.5552-10.886 1.6588 10.99h2.0735v17.314l2.1772-0.20732v-23.016l4.1725-7.2267 3.8107 0.07302 4.5403 7.8641v22.928h4.8943v-26.956h7.3609v26.852h1.7625v-24.571h5.806v23.535h0.8294v-20.735l5.4448 1.4589v19.38h6.0633v-23.742l1.9101-3.3084 1.9849 3.4379v23.301h5.6433v-24.571h6.2206v24.157h1.2441v-26.749h10.057v26.23h4.0434v-14.722h5.7023v13.996h0.8294v-26.127h6.7389v26.334h1.8662v-24.157h8.1906v24.571h3.836v-24.343h2.4397v-6.5979h4.3253v6.5979h3.1524v24.486h4.1053v-16.422h6.9645v16.495h6.5247v-22.506s3.8121-4.6919 8.6507-0.51317c-0.0735 2.2726 0 23.239 0 23.239h1.6127v-19.721h4.9852l5.0379 18.802h2.5863v-8.0984l1.0997-2.7125 0.9531 2.7125h5.4249l0.6232-2.465 0.9622 2.4559v8.0366h3.6563v-12.426h4.5453v12.17h2.0893v-21.113h6.4514v20.82h4.5452v-23.899h7.1844v5.1317h2.6392v-5.8648h6.4514v24.486h1.7594v-14.955h4.252v14.515h2.9324v-19.207h4.8385v18.914h4.8385v-23.313h5.5716l-0.2933 32.696-296.68 0.15319z"/>
    <path id="path6559" style="fill-rule:evenodd;fill:#4d4d4d" d="m0.32438 98.673h5.8903v24.157h1.2441v-26.749h10.057v26.23h4.0434v-14.722h5.7022v13.996h0.8293v-26.127h6.7391v26.334h1.8662v-24.157h8.1905v24.571h3.836v-24.343h2.4397v-6.5979h4.3253v6.5979h3.1524v24.486h4.1054v-16.422h6.9645v16.495h6.5247v-22.506c0-0.000019 3.8121-4.6919 8.6506-0.5132-0.0734 2.2726 0 23.239 0 23.239h1.6127v-19.721h4.9852l5.0379 18.802h2.5863v-8.0984l1.0997-2.7125 0.9531 2.7125h5.4249l0.6232-2.465 0.9622 2.4559v8.0366h3.6564v-12.426h4.5452v12.17h2.0894v-21.113h6.4513v20.82h4.5452v-23.899h7.1845v5.1317h2.6391v-5.8648h6.4514v24.486h1.7594v-14.955h4.252v14.515h2.9324v-19.207h4.8385v18.914h4.8385v-23.313h5.5717l-0.2933 32.696-169.31 0.0874"/>
    <path id="path6571" style="fill-rule:evenodd;fill:#b3b3b3" d="m185.41 98.706h-5.8903v24.157h-1.2441v-26.749h-10.057v26.23h-4.0434v-14.722h-5.7022v13.996h-0.8292v-26.127h-6.7393v26.334h-1.866v-24.157h-8.1905v24.571h-3.8361v-24.343h-2.4397v-6.598h-4.3252v6.598h-3.1524v24.486h-4.1055v-16.422h-6.9645v16.495h-6.5246v-22.506c0-0.000029-3.8122-4.6919-8.6506-0.51319 0.0732 2.2726 0 23.239 0 23.239l-1.6128 0.00005v-19.721h-4.9851l-5.038 18.802h-2.5863v-8.0984l-1.0998-2.7125-0.9529 2.7125h-5.425l-0.6231-2.4651-0.9622 2.4559v8.0367h-3.6564v-12.426h-4.5453v12.17h-2.0893v-21.113h-6.4513v20.82h-4.5454v-23.899h-7.1844v5.1318h-2.6391v-5.8649h-6.4514v24.486h-1.7594v-14.955h-4.252v14.516h-2.9324v-19.207h-4.8385v18.914h-4.8385v-23.313h-5.5717l0.2933 32.697 169.31 0.0874"/>
    <path id="path2709" style="fill-rule:evenodd;fill:#999999" d="m791.83 125.84h1.6833v-26.956h7.3611v26.852h1.7624v-24.571h5.806v23.535h0.8293v-20.735l5.4449 1.4589v19.38h6.0633v-23.742l1.9101-3.3084 1.9849 3.4379v23.301h5.6433v-24.571h6.2207v24.157h1.2442v-26.749h10.056v26.23h4.0435v-14.722h5.7022v13.996h0.8294v-26.127h6.739v26.334h1.8662v-24.157h8.1905v24.571h3.836v-24.343h2.4399v-6.598h4.3251v6.598h3.1525v24.486h4.1052v-16.422h6.9646v16.495h6.5247v-22.506c0 0.00003 3.8121-4.6919 8.6506-0.51315-0.0734 2.2726 0 23.239 0 23.239l1.6128 0.00002v-19.721h4.9853l5.0378 18.802h2.5864v-8.0984l1.0996-2.7125 0.9532 2.7125h5.4249l0.6232-2.4651 0.9621 2.4559v8.0367h3.6563v-12.426h4.5454v12.17h2.0892v-21.113h6.4514v20.82h4.5451v-23.899h7.1847v5.1317h2.6391v-5.8648h6.4512v24.486h1.7595v-14.955h4.252v14.516h2.9325v-19.207h4.8385v18.914h4.8385v-23.313h5.5715l-0.29334 32.697-208.12 0.10747"/>
  </g>
  <g id="layer14">
    <path id="path4146" style="fill-rule:evenodd;fill:#999999" d="m332.05 121.5v-39.656c0-1.8569 2.5408-6.3307 5.7333-6.4084 3.3435-0.08172 5.9619 4.6603 6.0319 6.4084 0.007 0.18059 0 39.418 0 39.418l-11.765 0.23771z"/>
    <path id="path4153" style="fill-rule:evenodd;fill:#cccccc" d="m439.62 58.911 3.4615 10.78v53.111l-15.118 0.14517v-53.851l3.3335-9.8791 4.2356-6.8581 4.0871 6.5516z"/>
    <path id="path4155" style="fill-rule:evenodd;fill:#cccccc" d="m448.38 114.46v-46.929h3.148v3.0176h7.4478v-3.0332h2.9427v46.928l-13.538 0.0171z"/>
    <path id="path4602" style="fill-rule:evenodd;fill:#ececec" d="m953.89 121.45 0.0883-53.422-12.009 7.534v45.887h11.921z"/>
    <path id="path4604" style="fill-rule:evenodd;fill:#f2f2f2" d="m969.59 85.094 1.9636 6.1158v30.132l-8.5767 0.0824v-30.551l1.8913-5.6048 2.403-3.8909 2.3188 3.717z"/>
  </g>
  <g id="layer15">
    <rect id="rect4163" style="fill:url(#linearGradient3710)" height="99.824" width="999.99" y="46.611" x=".024533"/>
  </g>
  <g id="layer12">
    <rect id="rect2693" style="fill:#333333" height="20.859" width="999.97" y="121.28" x=".012326"/>
    <rect id="rect3848" style="fill:#000000" height="10.96" width="999.96" y="139.04" x=".012570"/>
  </g>
  <g id="layer13">
    <path id="tree03" style="stroke:#000000;stroke-width:.13656;fill:#000000" d="m66.506 121.3l0.9558-0.071s3.1409 0.4411 3.1409 0.4411c0.549 0.15571 0.8344 0.51077 1.3657 0.67463l1.229 0.14744c0.4083 0.10656 1.5786 0.8904 1.8831 1.199 0.3237 0.32778 0.9574 1.4271 1.0352 1.8832 0.0096 0.44655-0.3017 0.93545 0 1.2837 0.3456 0.32503 0.8836 0.11471 1.4394 0.41653 0.5039 0.27447 0.6705 0.74559 1.0201 1.1621 0.5381 0.64321 1.4735 1.2127 1.4162 2.1877-0.0738 1.2509-2.4827 0.691-2.9471 1.9187-0.3988 1.0529 2.2301 0.89311 1.8012 2.174-0.3263 0.97509-1.7725 0.78525-2.5072 1.0638l-1.7752 1.0147c-0.4179 0.18708-0.8809 0.54484-1.3411 0.27171-0.8112-0.48337-0.6241-1.4967-0.7893-1.9324-0.1503-0.39599-0.5148-0.68143-0.874-0.88489-0.269-0.1516-0.631-0.3127-0.9382-0.18028-0.5326 0.22809-1.2542 1.2609-1.3273 1.8446l-0.6858 3.4982c-0.1051 0.48755 0.0848 1.0607 0.0835 1.5932 0 0.2977 0.0287 0.70232-0.1392 0.95357-0.4896 0.1434-0.7589 0.24427-1.3179-0.1424-0.2841-0.60636 0.0519-0.88987 0.1352-1.5795 0.0273-0.83169 0.1229-2.161 0.0873-3.0555l-0.1133-0.95591-0.127-0.68279c-0.0436-0.13383-0.101-0.28133-0.1762-0.4015-0.8179-1.3083-1.9419 0.53258-2.458 0.8084-0.2554 0.1366-0.5257 0.13794-0.807 0.11613-0.4111-0.0328-1.0161-0.13524-1.3657-0.351-0.3578-0.21983-0.7087-0.66233-1.0925-0.74426-0.6145-0.13242-2.383 1.3246-2.6479-0.11331-0.0273-0.13659-0.0083-0.27043 0-0.40696 0.0478-0.66776 0.1502-1.4189-0.1611-2.043-0.4124-0.82617-0.59-0.28269-1.3329-2.0539-0.1038-0.24855-0.269-0.55171-0.2976-0.81937-0.108-1.0365 1.3588-1.5568 1.6264-2.1973 0.2047-0.39195 0.0163-0.691 0-1.0802-0.067-0.40836 0.1393-1.2591 0.314-1.6265 0.2145-0.45469 0.5709-0.5995 0.8891-0.9928 0.3114-0.38374 0.4588-0.89856 0.9408-1.1034 0.4234-0.18023 0.8959-0.001 1.4886-0.35365 0.6159-0.36738 0.8317-0.8399 1.6388-1.2673 1.0146-0.23629 1.92 0.32907 2.7312 0.38644z"/>
    <path id="tree04" style="stroke:#000000;stroke-width:.15898;fill:#000000" d="m335.75 115.99c0.8044 0.0811 1.248-0.36403 2 0.26715 0.3529 0.29729 0.8855 0.93638 1.0683 1.3625 0.213 0.49604 0.2513 1.3164 0.7807 1.6312 0.7249 0.42925 1.0906-0.98412 2.0158-0.70273 0.6757 0.20668 0.6614 1.0478 0.6503 1.6153-0.035 1.8172-1.24 3.2734-1.0842 4.4484 0.1367 1.0366 1.6008 1.2035 1.5246 2.5438-0.0477 0.84102-0.8172 0.89192-1.6948 1.7663-1 1-1.3624 1.919-1.8998 3.1654-0.1638 0.38315-0.3704 1.2575-0.6138 1.4945-0.4848 0.47218-1.1685 0.002-1.7869 0.21942-0.469 0.16374-0.6947 0.5771-1.1336 0.84101-0.8266 0.49605-2.6422 0.65182-3.1368 1.5962-0.1573 0.372-0.0269 1.9889 0 2.5263-0.0285 0.41335 0.003 1.1749-0.2336 1.5183-0.105 0.15419-0.2417 0.25279-0.4325 0.25279-0.7201 0-0.6343-1.1415-0.6343-1.6121v-2.2258c-0.0334-1.7409-1.0048-1.5772-2.2257-2.1002 0 0-1.4309-0.74084-1.4309-0.74084-0.5183-0.27507-1.0764-0.76953-1.5899-0.90624-0.6407-0.17172-1.7076 0.10176-2.0684-0.34503-0.4325-0.53575 0.1859-1.9444-0.1161-2.744-0.2512-0.66935-0.9411-1.0922-1.2877-1.7488-0.1876-0.35452-0.6312-1.8299-0.6328-2.2258l0.1479-1.2719c-0.0683-0.61369-0.5851-1.0096-0.5819-1.5898 0.005-0.68682 0.6392-0.91097 1.1574-1.9078 0.4452-0.8585 0.8299-2.1447 1.5072-2.8283 1.0286-1.0398 1.9444-0.97302 2.9872-1.4165 0.493-0.20832 1.3452-0.99533 2.5438-1.4674 0.485-0.19079 1.07-0.18762 1.5899-0.26234 1.6708-0.19717 3.7392 0.76156 4.6106 0.84735z"/>
    <path id="path6593" style="stroke:#000000;stroke-width:.10685;fill:#000000" d="m942.38 122.73l0.748-0.0556 2.4576 0.34515c0.4296 0.12183 0.6529 0.39965 1.0685 0.52787l0.9617 0.11536c0.3195 0.0834 1.2352 0.69669 1.4735 0.93818 0.2532 0.25648 0.7491 1.1166 0.81 1.4735 0.007 0.34942-0.2362 0.73195 0 1.0044 0.2703 0.25432 0.6913 0.0898 1.1262 0.32591 0.3943 0.21477 0.5246 0.5834 0.7982 0.9093 0.421 0.50329 1.153 0.94886 1.1081 1.7118-0.0578 0.97878-1.9426 0.54067-2.306 1.5013-0.312 0.82387 1.745 0.69882 1.4094 1.7011-0.2552 0.76297-1.3869 0.61443-1.9618 0.8324 0 0-1.389 0.79396-1.389 0.79396-0.327 0.14638-0.6893 0.42631-1.0494 0.21259-0.6348-0.37822-0.4884-1.1711-0.6176-1.512-0.1176-0.30985-0.4027-0.53319-0.6839-0.69239-0.2104-0.11863-0.4937-0.24468-0.734-0.14106-0.4168 0.17846-0.9814 0.98658-1.0386 1.4433l-0.5366 2.7372c-0.0823 0.3815 0.0663 0.82993 0.0653 1.2466 0 0.23294 0.0225 0.54953-0.1089 0.74613-0.3831 0.1122-0.5938 0.19113-1.0312-0.11143-0.2222-0.47445 0.0406-0.69628 0.1059-1.2358 0.0212-0.65077 0.0961-1.6909 0.0683-2.3908l-0.0887-0.74797-0.0994-0.53424c-0.0341-0.10472-0.079-0.22014-0.1379-0.31417-0.64-1.0237-1.5194 0.41672-1.9233 0.63254-0.1998 0.10689-0.4113 0.10794-0.6314 0.0909-0.3217-0.0257-0.7951-0.10582-1.0686-0.27464-0.2799-0.17201-0.5545-0.51825-0.8548-0.58235-0.4809-0.10362-1.8646 1.0365-2.072-0.0887-0.0212-0.10688-0.006-0.21161 0-0.31843 0.0375-0.5225 0.1176-1.1102-0.126-1.5985-0.3227-0.64645-0.4616-0.2212-1.0429-1.6071-0.0812-0.19448-0.2105-0.43169-0.233-0.64112-0.0844-0.81103 1.0633-1.2182 1.2727-1.7193 0.1602-0.30668 0.0128-0.54068 0-0.84521-0.0524-0.31953 0.109-0.98521 0.2458-1.2727 0.1677-0.35577 0.4466-0.46908 0.6956-0.77682 0.2436-0.30026 0.359-0.70309 0.7361-0.86337 0.3313-0.14103 0.7011-0.001 1.1647-0.27672 0.4821-0.28746 0.6509-0.65719 1.2824-0.9916 0.7939-0.18488 1.5023 0.25749 2.137 0.30238z"/>
  </g>
  <g id="layer11">
    <g id="g3909" transform="translate(8.5414 12.582)">
      <path id="path3094" style="fill-rule:evenodd;stroke:#000000;stroke-width:.12958px;fill:#000000" d="m923.51 127.56-0.0438-14.126s1.2081-0.16109 1.8524-0.9128v-37.424l-12.783-0.000803v37.424c0.64432 0.75171 1.8524 0.9128 1.8524 0.9128v13.933c2.1129 1.8329 7.0069 1.3842 9.1216 0.19296z"/>
      <path id="path3096" style="fill-rule:evenodd;stroke:#000000;stroke-width:.12958px;fill:#000000" d="m916.39 75.118-0.0403-19.625h5.0876l0.0134 19.62-5.0607 0.0046z"/>
      <path id="path3098" style="fill-rule:evenodd;stroke:#000000;stroke-width:.12958px;fill:#000000" d="m913.07 71.724v1.3858h11.732v-1.4048l-11.732 0.01897z"/>
      <path id="path3100" style="fill-rule:evenodd;stroke:#000000;stroke-width:.12958px;fill:#000000" d="m913.12 67.775v1.3858h11.732v-1.4048l-11.732 0.01897z"/>
      <path id="path3102" style="fill-rule:evenodd;stroke:#000000;stroke-width:.12958px;fill:#000000" d="m913.05 63.827v1.3858h11.732v-1.4048l-11.732 0.01897z"/>
      <path id="path3104" style="fill-rule:evenodd;stroke:#000000;stroke-width:.12958px;fill:#000000" d="m913.16 59.859v1.3858h3.315 8.4168v-1.4048l-11.732 0.01898z"/>
      <path id="path3106" style="fill-rule:evenodd;stroke:#000000;stroke-width:.12958px;fill:#000000" d="m913.07 55.835v1.3858h11.732v-1.4048l-11.732 0.01898z"/>
      <path id="path3108" style="fill-rule:evenodd;stroke:#000000;stroke-width:.12958px;fill:#000000" d="m921.53 55.471s3.1892-0.11389 3.7967-0.53153c-0.019-0.98715-0.019-1.0061-0.019-1.0061s-0.18984-0.18984-0.75934-0.28476c-0.0569 0.01898-0.038-0.24678-0.038-0.24678h0.53154l0.24678-0.24678v-4.0245h0.34171s0.21251-0.11616 0.28633-0.3108v-5.2284s-0.28189-0.32887-0.65103-0.44297c0.0201-0.02014 0-3.5639 0-3.5639-0.40423-0.66268-2.2277-0.90357-3.4498-1.0672l0.007-0.27517s1.0604-0.07384 1.2484-0.30202c0.0201 0 0.38928-0.32887 0.40942-0.46311 0.0134-0.02685 0-2.4498 0-2.4498-0.14238-0.24678-1.2356-0.67808-2.235-0.745l-4.6515 0.0034c-0.99936 0.06693-2.0926 0.49822-2.235 0.745 0 0-0.0134 2.4229 0 2.4498 0.0201 0.13424 0.38928 0.46311 0.40942 0.46311 0.18793 0.2282 1.2484 0.30202 1.2484 0.30202l0.007 0.27519c-1.2221 0.16358-3.0456 0.40446-3.4498 1.0672 0 0-0.0201 3.5438 0 3.5639-0.36915 0.1141-0.65103 0.44297-0.65103 0.44297v5.2284c0.0738 0.19464 0.28633 0.3108 0.28633 0.3108h0.34171v4.0245l0.24678 0.24679h0.53154s0.019 0.26577-0.038 0.24678c-0.5695 0.09492-0.75934 0.28475-0.75934 0.28475s0 0.01899-0.019 1.0061c0.60747 0.41764 3.7967 0.53154 3.7967 0.53154l5.2206-0.0034z"/>
      <path id="path3110" style="fill-rule:evenodd;stroke:#000000;stroke-width:.12958px;fill:#000000" d="m913.43 71.696v-0.26846h-0.69801l-0.12081 0.4027-0.80541 0.01342-0.16108-0.75171v-0.77856l0.14766-0.51008 0.81883-0.02685 0.20135 0.26847v1.141l0.91279 0.02685 0.0134 0.44297-0.30874 0.04026z"/>
      <path id="path3112" style="fill-rule:evenodd;stroke:#000000;stroke-width:.12958px;fill:#000000" d="m913.2 67.707v-0.26848h-0.69801l-0.12081 0.4027-0.8054 0.01342-0.16108-0.75171v-0.77855l0.14765-0.5101 0.81883-0.02684 0.20135 0.26846v1.141l0.91279 0.02685 0.0134 0.44297-0.30874 0.04028z"/>
      <path id="path3114" style="fill-rule:evenodd;stroke:#000000;stroke-width:.12958px;fill:#000000" d="m913.36 63.817v-0.26846h-0.69802l-0.12081 0.4027-0.8054 0.01342-0.16108-0.75171v-0.77856l0.14766-0.51008 0.81882-0.02685 0.20135 0.26847v1.141l0.91279 0.02685 0.0134 0.44297-0.30873 0.04026z"/>
      <path id="path3116" style="fill-rule:evenodd;stroke:#000000;stroke-width:.12958px;fill:#000000" d="m914.55 59.834v-0.26847h-0.69801l-0.12081 0.40271-0.8054 0.01341-0.16108-0.75171v-0.77855l0.14765-0.51008 0.81883-0.02685 0.20135 0.26846v1.141l0.91279 0.02684 0.0134 0.44297-0.30874 0.04028z"/>
      <path id="path3118" style="fill-rule:evenodd;stroke:#000000;stroke-width:.12958px;fill:#000000" d="m924.01 65.669h-0.96648s-1.1678 0.84567-0.0403 2.0135c0.0268-0.04028 1.2618 0.0537 1.2618 0.0537s1.0739-1.2484-0.25504-2.0672z"/>
      <path id="path3120" style="fill-rule:evenodd;stroke:#000000;stroke-width:.12958px;fill:#000000" d="m924.08 69.779h-0.96648s-1.1678 0.84567-0.0403 2.0135c0.0268-0.04028 1.2618 0.05369 1.2618 0.05369s1.0739-1.2484-0.25505-2.0672z"/>
      <path id="path3122" style="fill-rule:evenodd;stroke:#000000;stroke-width:.11657px;fill:#000000" d="m924.06 61.913h-0.77717s-0.93907 0.851-0.0324 2.0262c0.0216-0.04052 1.0146 0.05402 1.0146 0.05402s0.86352-1.2562-0.20508-2.0802z"/>
      <path id="path3124" style="fill-rule:evenodd;stroke:#000000;stroke-width:.11040px;fill:#000000" d="m922.91 58.588h-0.69507s-0.83989 0.85351-0.029 2.0322c0.0193-0.04065 0.90747 0.05419 0.90747 0.05419s0.77231-1.26-0.18343-2.0864z"/>
      <path id="path3126" style="fill-rule:evenodd;stroke:#000000;stroke-width:.12184px;fill:#000000" d="m915.24 62.239h-0.85117s-1.0285 0.84885-0.0355 2.021c0.0236-0.04042 1.1112 0.05389 1.1112 0.05389s0.94574-1.253-0.22461-2.0749z"/>
      <path id="path3128" style="fill-rule:evenodd;stroke:#000000;stroke-width:.13399px;fill:#000000" d="m915.51 66.061h-0.96452s-1.1654 0.90601-0.0402 2.1571c0.0268-0.04314 1.2592 0.05752 1.2592 0.05752s1.0717-1.3374-0.25452-2.2147z"/>
      <path id="path3130" style="fill-rule:evenodd;stroke:#000000;stroke-width:.12633px;fill:#000000" d="m915.32 69.91h-0.91704s-1.1081 0.84701-0.0382 2.0167c0.0255-0.04034 1.1972 0.05378 1.1972 0.05378s1.0189-1.2504-0.24199-2.0705z"/>
      <path id="path3132" style="fill-rule:evenodd;stroke:#000000;stroke-width:.14293px;fill:#000000" d="m917.09 24.305 3.6916 0.04917-0.12038 1.3604h-3.598l0.0268-1.4095z"/>
      <path id="path3134" style="fill-rule:evenodd;stroke:#000000;stroke-width:.18691px;fill:#000000" d="m920.52 27.132h-3.0703l0.002 1.3655h3.044l0.0241-1.3655z"/>
      <path id="path3136" style="fill-rule:evenodd;stroke:#000000;stroke-width:.20135px;fill:#000000" d="m917.64 30.052h2.5861v1.4988h-2.5791l-0.007-1.4988z"/>
      <path id="path3138" style="fill-rule:evenodd;stroke:#000000;stroke-width:.19996px;fill:#000000" d="m918.02 32.736h1.8631v0.82899h-1.876l0.0129-0.82899z"/>
      <path id="path3140" style="stroke:#000000;stroke-width:.32396;fill:none" d="m917.9 34.355-0.88273-9.9853 3.8157 0.05695-0.89222 9.9379-2.0407-0.0095z"/>
      <path id="path3142" style="stroke:#000000;stroke-width:0.311;fill:none" d="m919.02 24.237v-6.853"/>
    </g>
  </g>
  <g id="layer10">
    <path id="path3090" style="fill-rule:evenodd;stroke:#000000;stroke-width:.16353;fill:#000000" d="m894.59 139.64c-0.1664 0.59476-0.8934 1.4303-0.9566 1.4805-5.0333 4.0009-18.341 4.676-25.574-0.49576-0.2858-0.20433-1.5687-1.8227-1.5687-1.8655-1.3001-11.123-9.1322-79.204 12.66-105.56-0.1565-0.15658 2.3492-0.15658 2.3492-0.15658 22.971 23.147 14.207 106.47 13.09 106.6z"/>
  </g>
  <g id="layer9">
    <path id="path3293" style="fill-rule:evenodd;stroke:#000000;stroke-width:.015306;fill:#000000" d="m747.83 139.68v-2.3096l0.25662-0.25663-0.0128-7.5062s-0.3721-0.46192-0.29511-0.53891c-0.0257-0.0898-0.0257-0.5774-0.0257-0.5774h0.37211v-7.0058l-0.34644-0.24379v-0.21813l0.34644 0.0128-0.34644-0.41059v-0.38494l-0.45499-0.26268v-0.34038l0.42932-0.29512v-0.44909l0.29512-0.2053v-1.6424h-0.26945l-0.14876-0.25765v-0.24277l0.15778-0.15777h1.3511v1.2099h0.26945v0.20529h0.55174v-0.20529h0.75704v0.25662h0.43626v0.24379h0.3721v0.15398l0.26423 0.0708v-0.90483l0.21052-0.38493 0.17964-0.17964h1.8092v0.2053h2.1171v-0.26946h1.9888v0.25663h5.1838v-0.30795h1.9632v0.30795h5.2479v-0.34644h1.9247v0.34644h5.0555v-0.33361h2.2968v0.29512h1.8349v-0.28229h-0.28229v-0.50041h-0.2053v-0.42343h0.56457v-3.2398h-0.3721v-0.91743h0.16681v-6.4096-1.2955l-0.4491-0.4491v-0.39134l0.59024-0.22456v-1.0072l-0.16205-0.0434v-0.25811l0.71378-0.44909 1.0522-0.31437h1.1291v-2.9255l-0.43073-0.33115v-0.54438h0.44356v-0.17692h0.18701l-0.0358-0.13378h-0.14562l-0.17354-0.17355v-0.20076l0.49194-0.28402v-0.64469h0.21691c0.35359-2.983 2.1226-8.7385 7.4273-10.611l0.00001-0.40906h0.23031v-0.25405s-0.41113 0.04271-0.46858-0.23479c0-0.07259-0.0226-0.30509 0.24332-0.41205l0.16175-0.01166v-0.8661h0.13472v-0.46834h0.1604v0.42343h0.33999v-0.7442h-0.18602v-0.44909h0.35927v-3.2591l-0.39777-0.32078v-0.25662h0.4332v-1.022l0.40829 0.40828v0.49902h0.31755v-1.8509h-0.41735v-0.32663h0.23589v-0.99803s0.53531-0.84379 0.86193-0.84379v-0.30847l-0.28126-0.14517v-0.14517h0.30848v-0.78455h0.23758s-0.20209-0.13793-0.22454-0.26945l-0.006-0.30153s0.0834-0.14757 0.17963-0.15398c0.10902-0.0073 0.12832-0.0064 0.12832-0.0064v-0.16712c-0.92526-0.45365-0.19855-1.3192-0.006-1.2294l0.0253-1.5996 0.1551-0.86611 0.1551 0.86611 0.0253 1.5996c0.19247-0.08981 0.91917 0.77574-0.006 1.2294v0.16712s0.0193-0.000861 0.12831 0.0064c0.0962 0.0064 0.17964 0.15398 0.17964 0.15398l-0.006 0.30153c-0.0225 0.13152-0.22455 0.26945-0.22455 0.26945h0.23758v0.78455h0.30848v0.14517l-0.28126 0.14517v0.30847c0.32663 0 0.86193 0.84379 0.86193 0.84379v0.99803h0.2359v0.32663h-0.41735v1.8509h0.31755v-0.49902l0.40828-0.40828v1.022h0.4332v0.25662l-0.39777 0.32078v3.2591h0.35928v0.44909h-0.18603v0.7442h0.34v-0.42343h0.16039v0.46834h0.13473v0.8661l0.16175 0.01166c0.26587 0.10696 0.24332 0.33946 0.24332 0.41205-0.0575 0.2775-0.46859 0.23479-0.46859 0.23479v0.25405h0.23032v0.40906c5.3047 1.8729 7.0737 7.6284 7.4273 10.611h0.21691v0.64469l0.49193 0.28402v0.20076l-0.17354 0.17355h-0.14561l-0.0358 0.13378h0.18701v0.17692h0.44356v0.54438l-0.43072 0.33115v2.9255h1.1291l1.0522 0.31437 0.71379 0.44909v0.25811l-0.16205 0.0434v1.0072l0.59023 0.22456v0.39134l-0.44909 0.4491v1.2955 6.4096h0.1668v0.91743h-0.3721v3.2398h0.56457v0.42343h-0.2053v0.50041h-0.28229v0.20095h2.5543v-0.37276h2.2959v0.37308h5.0893v-0.32525h1.9707v0.36352h5.2902v-0.35396h2.009v0.33483h4.6605v-0.32062h2.5299v0.29763h10.12v-1.8534l-0.29764-0.22323-0.0135-1.1973 0.3044-0.13529v-0.45998h-0.29764v-1.5423h0.89968v-0.60881l0.44307 0.007-0.27743-0.3731-0.14349-0.17219-0.0191-0.38266 0.32168 0.008v-0.48705h0.14206v-4.1398l-0.24337-0.14052-0.36386-0.17663v-0.5893h0.60723v-0.89967h0.17588v-0.62909h0.29086 0.15053v-0.78057h-0.18176v-0.26784h0.18176v-0.33483h0.28699v0.32526h0.16263v0.27741h-0.16263v0.44963h0.22959l0.26786-0.43048v-1.3584h-0.20089v-0.44389h0.30612v-0.45537h0.22959v-0.31568h-0.22002v-0.34439h0.20089v-0.32526h0.15307l-0.033-0.12321h0.19564l-0.0173-0.5872 0.28411-0.38557v-0.75034l0.51762-0.84185h0.10523s0.0478-0.45918 0.27743-0.49745c0-0.01913 0.0175-0.33598 0.0175-0.33598-0.20293-0.02706-0.29544-0.39517-0.0113-0.51693 0.002 0.000571-0.009-0.31029-0.007-0.31116-0.32884-0.10284-0.33094-0.64541 0.12072-0.66052 0.45165 0.01595 0.44955 0.55852 0.12071 0.66137 0.002 0.000869-0.009 0.31173-0.007 0.31116 0.28412 0.12176 0.1916 0.48986-0.0113 0.51693 0 0 0.0175 0.31685 0.0175 0.33598 0.22959 0.03826 0.27742 0.49745 0.27742 0.49745h0.10524l0.51761 0.84185v0.75033l0.28411 0.38558-0.0173 0.58719h0.19565l-0.033 0.12321h0.15306v0.32526h0.2009v0.34439h-0.22003v0.31569h0.2296v0.45536h0.30612v0.44389h-0.2009v1.3584l0.26786 0.43049h0.2296v-0.44963h-0.16263v-0.27742h0.16263v-0.32525h0.28699v0.33481h0.18176v0.26786h-0.18176v0.78057h0.15052 0.29087v0.62908h0.17587v0.89968h0.60724v0.5893l-0.36386 0.17663-0.24338 0.14052v4.1398h0.14205v0.48705l0.32169-0.008-0.0191 0.38265-0.1435 0.1722-0.27742 0.3731 0.44307-0.007v0.60881h0.89967v1.5423h-0.29764v0.45998l0.3044 0.13529-0.0135 1.1973-0.29764 0.22323v1.4946h1.2183v-0.34602s-0.22003-0.19133-0.20089-0.33482c0 0.0383 0.005-0.58833 0.005-0.58833s0.0478-0.19611 0.15306-0.24874c-0.0143-0.0143 0-1.2867 0-1.2867l0.13872-0.13392s-0.0723-0.26155 0.1645-0.2717c-0.0135 0 0.2486-0.008 0.16573 0.31116 0-0.005 0.23897 0.13752 0.23897 0.13752v0.34439h-0.10044v0.14828h0.16263l-0.005 1.1814h-0.15306v1.0858 1.8682l0.29809 0.1894v1.0079h-0.14882v0.58851h-0.16236v5.5469h0.47352v0.91321h0.31793v0.61557h-0.15558v0.27734h-0.47351v0.90644h0.18263v0.64939h-0.17586v0.56822h-0.16236v7.1027h0.31118v0.29087h0.1691v0.16911h0.15559v2.4149l-108.79 0.009z"/>
  </g>
  <g id="layer8">
    <g id="g3281" transform="translate(10.309 12.936)">
      <g id="g3293" style="fill:#1a1a1a" transform="matrix(.085510 0 0 .085510 686.15 61.802)">
        <path id="path3295" style="fill:#1a1a1a" d="m116.96 163.49a5.5365 2.2445 0 1 1 -11.073 0 5.5365 2.2445 0 1 1 11.073 0z" transform="matrix(1.6107 0 0 3.362 -87.472 -370.11)"/>
        <path id="path3297" style="fill-rule:evenodd;stroke:#1a1a1a;stroke-width:2.4423;fill:#1a1a1a" d="m90.91 173.99 0.56497-23.94 0.90135 23.899-1.4663 0.041z"/>
        <path id="path3299" style="fill-rule:evenodd;fill:#1a1a1a" d="m94.969 184.77c-0.99813 4.0706 1.6546 29.059 2.0291 29.155 30.649 7.8121 34.768 34.795 34.768 34.795l8.3126 0.0716-0.009 15.229h-8.735l-0.48389 115.8-77.612-0.14211 0.158-114.8h-8.3393l-0.0086-16.206 7.917-0.0716s1.9541-28.639 32.588-33.794c0.38116-0.0641 4.0894-25.335 3.0912-29.405l6.3227-0.63204z"/>
      </g>
      <g id="g3301" transform="matrix(.085510 0 0 .085510 675.3 58.2)">
        <path id="path3303" style="stroke:#000000;stroke-width:.88388;fill:#000000" d="m116.96 163.49a5.5365 2.2445 0 1 1 -11.073 0 5.5365 2.2445 0 1 1 11.073 0z" transform="matrix(1.6107 0 0 3.362 -87.472 -370.11)"/>
        <path id="path3305" style="fill-rule:evenodd;stroke:#000000;stroke-width:2.4423;fill:#000000" d="m90.91 173.99 0.56497-23.94 0.90135 23.899-1.4663 0.041z"/>
        <path id="path3307" style="fill-rule:evenodd;stroke:#000000;stroke-width:.82763px;fill:#000000" d="m94.969 184.77c-0.99813 4.0706 1.6546 29.059 2.0291 29.155 30.649 7.8121 34.768 34.795 34.768 34.795l8.3126 0.0716-0.009 15.229h-8.735l-0.48389 115.8-77.612-0.14211 0.158-114.8h-8.3393l-0.0086-16.206 7.917-0.0716s1.9541-28.639 32.588-33.794c0.38116-0.0641 4.0894-25.335 3.0912-29.405l6.3227-0.63204z"/>
      </g>
      <path id="path3310" style="stroke:#000000;stroke-width:.88388;fill:#000000" d="m116.96 163.49a5.5365 2.2445 0 1 1 -11.073 0 5.5365 2.2445 0 1 1 11.073 0z" transform="matrix(.13773 0 0 .28748 708.11 26.506)"/>
      <path id="path3312" style="fill-rule:evenodd;stroke:#000000;stroke-width:.20884;fill:#000000" d="m723.36 73.032 0.0483-2.0471 0.0771 2.0436-0.12538 0.0035z"/>
      <g id="g3314" style="fill:#1a1a1a" transform="matrix(.082332 0 0 .078542 706.38 62.828)">
        <path id="path3316" style="fill:#1a1a1a" d="m116.96 163.49a5.5365 2.2445 0 1 1 -11.073 0 5.5365 2.2445 0 1 1 11.073 0z" transform="matrix(1.6107 0 0 3.362 -87.472 -370.11)"/>
        <path id="path3318" style="fill-rule:evenodd;stroke:#1a1a1a;stroke-width:2.3223;fill:#1a1a1a" d="m90.91 173.99 0.56497-23.94 0.90135 23.899-1.4663 0.041z"/>
        <path id="path3321" style="fill-rule:evenodd;fill:#1a1a1a" d="m94.969 184.77c-0.99813 4.0706 1.6546 29.059 2.0291 29.155 30.649 7.8121 34.768 34.795 34.768 34.795l8.3126 0.0716-0.009 15.229h-8.735l-0.48389 115.8-77.612-0.14211 0.158-114.8h-8.3393l-0.0086-16.206 7.917-0.0716s1.9541-28.639 32.588-33.794c0.38116-0.0641 4.0894-25.335 3.0912-29.405l6.3227-0.63204z"/>
      </g>
      <path id="path3323" style="fill-rule:evenodd;stroke:#000000;stroke-width:.070771px;fill:#000000" d="m723.73 74.06c-0.0854 0.34807 0.14148 2.4849 0.1735 2.493 2.6208 0.66801 2.973 2.9754 2.973 2.9754l0.71082 0.0061-0.00074 1.3022h-0.74693l-0.0414 9.902-6.6366-0.01215 0.0135-9.8164h-0.71309l-0.00074-1.3858 0.67698-0.0061s0.16709-2.4489 2.7866-2.8897c0.0326-0.0055 0.34968-2.1664 0.26433-2.5144l0.54066-0.05405z"/>
      <path id="path3325" style="fill-rule:evenodd;stroke:#000000;stroke-width:.069560px;fill:#000000" d="m733.5 91.057s0.003-1.4326 0.001-1.4281c-0.18711-0.13081-1.2309-0.21036-1.2309-0.21036v1.7809l-1.1012-0.14087-0.0151-1.6816c-0.67378-0.10662-0.96178-0.14128-1.5956-0.16364l0.0113 1.6152-1.1864-0.13917v-1.517c-0.87643-0.02606-1.5072-0.03311-1.5072-0.03311l0.0214 1.5112-1.7208-0.0095h-1.5272v-1.6049h-2.3739l0.0216 1.6234-1.5056-0.0068v-1.6049l-2.3365 0.0071-0.005 1.6223-1.516-0.0079v-1.6049h-2.3739l0.0101 1.6273-1.4957-0.01v-1.6049h-2.3739l0.0204 1.621-1.5068-0.0022v-1.6049h-2.3739l0.0215 1.6256-1.5057-0.0046v-1.6049h-2.3739l0.0102 1.621-1.4955-0.0022v-1.6049h-2.3739l0.0165 1.6247-1.5-0.0056v-1.6049h-2.374l0.0212 1.6234-1.506-0.0068v-1.6049h-2.3739v1.5949h-1.5121v-1.5549h-9.0422l0.0732 26.488c-0.0791 0.0167 43.942-0.13983 44.022-0.14094 0 0 9.0237-0.1275 9.5378-1.2275 0.0302-0.48 0.0151-23.217 0.0141-23.25z"/>
      <path id="path3056" style="fill-rule:evenodd;stroke:#000000;stroke-width:.23998px;fill:#000000" d="m676.97 120.74-0.0106-2.8635s-0.56209-0.0954-0.53027-0.30756c0.0318-0.21211 0.35059-0.0584 0.44543-0.31816 0.30421-0.83332-0.14848-1.4424-0.96005-1.4554-0.89643 0.003-1.2961 0.62791-0.99188 1.4612 0.0948 0.2598 0.41362 0.10605 0.44544 0.31817 0.0318 0.21211-0.53028 0.30755-0.53028 0.30755l-0.0265 2.7098v0.15908l2.1587-0.0112z"/>
    </g>
  </g>
  <g id="layer6">
    <path id="path2235" style="fill-rule:evenodd;fill:#0e0e0e" d="m516.67 126.67c-2.216 2.2562-20.387 3.8806-24.773 0.28658 0.0274 0.0134-0.86081-2.4597-0.86081-2.4597s-1.2855-0.21345-1.379-0.51035c0.00094 0.0631-0.19518-1.7802-0.19518-1.7802s-1.6336-0.0983-1.8365-0.32254c-0.006 0.01-0.20843-3.1674-0.20843-3.1674s-1.1469-0.0528-1.3118-0.29524c-0.0137 0.0402-0.0132-1.8587-0.0132-1.8587 0.0173 0.0109-0.89168 0.0956-1.1947-0.22889-0.0252 0.002-0.06-2.6233-0.06-2.6233s-0.65006 0.0684-0.8929-0.18904c-0.0126-0.11889-0.0329-2.5401-0.0329-2.5401-0.78938-0.0526-0.68249-0.37495-0.68249-0.37495l0.0828-2.3238c-0.24998-0.0395-0.59922-0.32602-0.55975-0.451l0.14231-2.3325c-0.37495-0.17103-0.42863-0.57229-0.42863-0.64466l0.23604-2.1291s-0.0211 0.0424-0.23591-0.11712c-0.0952-0.0826 0.17996-1.754 0.29179-1.8263 0.38645-0.48294 0.0173 0.0986-0.21621-0.60801-0.0257-0.15498 0.32596-2.3156 0.75622-2.5205 0.21396-0.05999 3.252-0.60885 4.9018-0.64674-0.0485 0.01895 3.8528 0 3.8528 0s6.541 0.71056 9.3747 2.2454c-0.2135-0.15159 4.6777 2.5391 5.4152 3.0507-0.0194-0.019 5.7649 4.5022 7.5216 8.0126-0.0549-0.10719 2.1685 3.9391 2.5528 5.547-0.0171-0.0833 0.71817 1.9396 1.1083 3.7751 0.24345 1.1453 0.33587 1.849 0.42882 2.549 0.0549 0.0536-1.5364 0.94986-1.7224 0.8374l-0.0274 2.5055v0.24746l-0.0343 0.89349z"/>
  </g>
  <g id="layer5">
    <g id="g3843" style="fill:#0d0d0d" transform="translate(8.5414 10.991)">
      <path id="path3146" style="fill-rule:evenodd;fill:#0d0d0d" d="m453.49 123.69s-16.951 0.58529-17.716 0.09c-0.0901 0.045-1.5533 1.4407-2.1611 2.6788 0.0225-0.0675-0.76538-0.0901-0.76538-0.0901s0.59718-1.7393 0.45391-2.2487c-0.0478 0.0637-2.897-0.58896-3.7407-0.68447 0.0637 0.0318-0.79589 0.12734-1.1142 2.6264 0.0159-0.0955-0.73221-0.0159-0.73221-0.0159s0-2.4991-0.82773-2.8493c-0.0318-0.0159-10.26-1.5117-13.773-2.2922 0 0-2.4155 1.0028-3.1796 1.9579l-0.38203-0.15918s2.0216-2.2285 1.942-2.9448c-0.0478-0.0159 0.0692-0.68342-1.1296-0.54273-0.0169 0.0113-2.887 1.9528-3.2585 2.4593l-0.31515-0.24199s1.7671-3.0221 1.0693-3.72c-0.0225-0.0225-1.6667-2.0614-2.6854-1.8863 0.0637-0.0478-4.3455 1.3689-4.3455 1.3689l-0.0318-0.26264s2.0295-1.2177 1.9658-1.2973c0 0-2.1741 0.47905-2.1854 0.65914-0.0338-0.15757-0.045-0.2026-0.045-0.2026l3.568-3.0277c0.33767-0.31516 4.9014-3.5614 11.585-6.6646 0.66028-0.30654 9.41-5.2481 26.338-5.3131-0.0955 0 18.917-1.0563 35.26 12 0 0 1.2831 1.3957 2.3412 2.2962 0.045 0.13506-0.15757 0.0675-0.15757 0.0675s-2.8814-1.4182-3.3992-0.45022c-0.0225 0-0.67534 1.5308-0.0675 2.7013 0.6078 1.1706 1.8234 2.8814 1.8234 2.8814l-0.15757 0.09s-2.5888-2.8814-3.8044-2.5438c0.11255 0.045-1.3056 0.2026 1.9134 3.3767 0.0225 0-0.2026 0.2026-0.2026 0.2026s-2.9039-2.3186-4.0295-2.1611c-0.94547 0.22511-10.062 2.6788-10.062 2.6788s-0.78789 1.7334-0.31516 2.9715c-0.09 0.0225-0.47273 0.15758-0.47273 0.15758s-1.1931-2.5212-1.5983-2.5212c-0.87794 0.0901-3.3992 0.72036-3.3992 0.72036s0.42771 1.8234 0.8104 2.2961c-0.54027 0.0225-0.54027 0.045-0.54027 0.045s-2.116-2.2061-2.4762-2.2061z"/>
      <path id="path3148" style="fill-rule:evenodd;fill:#0d0d0d" d="m415.98 106.43-3.6468-13.327-0.13507-2.6113 1.3056 2.5213 3.9169 12.606-1.4407 0.8104z"/>
      <path id="path3150" style="fill-rule:evenodd;fill:#0d0d0d" d="m414.27 95.083-0.27014-3.5568 1.3056 2.8364 2.9715 11.301-0.94546 0.31516-3.0615-10.895z"/>
      <path id="path3152" style="fill-rule:evenodd;fill:#0d0d0d" d="m420.44 104.31-2.3862-11.751-0.22511-2.7013 0.99049 2.5663 2.9715 11.526-1.3507 0.36018z"/>
      <path id="path3154" style="fill-rule:evenodd;fill:#0d0d0d" d="m426.25 102.98-1.1256-7.4962 0.045-3.4217 1.1256 3.2866 1.1706 7.6088-1.2156 0.0225z"/>
      <path id="path3156" style="fill-rule:evenodd;fill:#0d0d0d" d="m428.71 102.3-1.0187-9.7735 0.0955-2.7697 0.82772 3.088 1.1779 9.4233-1.0824 0.0318z"/>
      <path id="path3158" style="fill-rule:evenodd;fill:#0d0d0d" d="m439.08 101.52 0.10483-9.3417 0.35019-2.706 0.5412 2.6105 0.12734 9.4233-1.1236 0.0138z"/>
      <path id="path3160" style="fill-rule:evenodd;fill:#0d0d0d" d="m442.37 101.16 0.15918-5.1255 0.76405-3.7566 0.63671 3.9794-0.12734 5.03-1.4326-0.12734z"/>
      <path id="path3162" style="fill-rule:evenodd;fill:#0d0d0d" d="m449.69 101.6 0.9869-9.0095 0.73222-2.8015 0.19101 3.2154-0.95506 8.7866-0.95507-0.191z"/>
      <path id="path3164" style="fill-rule:evenodd;fill:#0d0d0d" d="m457.43 103.13 1.6554-7.6724 1.2734-3.4701-0.31835 3.8521-1.4326 7.7679-1.1779-0.47753z"/>
      <path id="path3166" style="fill-rule:evenodd;fill:#0d0d0d" d="m459.53 103.73 2.1966-10.601 0.19102-2.9925-1.0506 3.1199-2.2922 10.251 0.95507 0.22286z"/>
      <path id="path3168" style="fill-rule:evenodd;fill:#0d0d0d" d="m464.37 105.45 3.4064-11.238 1.2734-2.6742-0.28652 3.3109-3.0244 11.333-1.3689-0.73221z"/>
    </g>
  </g>
  <g id="layer7">
    <g id="g12775" transform="matrix(.24294 0 0 .24294 424.43 27.495)">
      <path id="path2236" style="fill-rule:evenodd;stroke:#000000;stroke-width:1px;fill:#000000" d="m478.27 275.92 2.0819 0.0469 1.8228-10.113 0.84537-3.6605-1.1921-0.0865-0.11234-0.77344 1.4943-0.0508 1.1764-7.3444 0.55033-4.0322 0.47885 4.1248 1.2335 7.2534 1.1942 0.0439 0.125 0.83519-1.2246-0.0913 3.4206 21.078 0.23709 146.09-45.285-0.005v-146.1l3.4792-21.444-1.0814 0.10003 0.0884-0.71517 1.0916-0.0881 1.0826-5.7347 0.67772-4.8099 0.38619 4.8435 1.0396 5.4488 1.0875 0.0773-0.0445 0.58112-0.90309 0.0937 1.0858 4.351 3.3523 10.053 2.0781-0.0156 9.5045-33.832 10.229 33.871z"/>
      <path id="path7339" style="fill-rule:evenodd;stroke:#000000;stroke-width:1px;fill:#000000" d="m758.39 275.75h2.8788l1.8228-10.207 0.84537-3.6605-1.1921-0.0865-0.11234-0.77343 1.4943-0.0508 1.1764-7.3444 0.55033-4.0322 0.47885 4.1248 1.2335 7.2534 1.1942 0.0439 0.125 0.83519-1.2246-0.0913 3.4206 21.078 0.23709 146.09-45.285-0.005v-146.1l3.4792-21.444-1.0814 0.10003 0.0884-0.71518 1.0916-0.0881 1.0826-5.7347 0.67772-4.8099 0.38619 4.8435 1.0396 5.4488 1.0875 0.0773-0.0445 0.58112-0.90309 0.0937 1.0858 4.351 2.8679 10.506 2.6719 0.0156 9.3951-34.317 9.4317 34.012z"/>
      <path id="path7342" style="fill-rule:evenodd;stroke:#000000;stroke-width:1px;fill:#000000" d="m726.11 307.05-107.42 0.0319v-2.0625s0.65625-4.1562-1.9375-3.9375c0.0937-0.0312-2.3438-0.375-2.125 3.4062l-5.2188-0.0625-0.0625-3.2188s3.5625-4.1875-1.2188-5.6875c-2.4278 0.98098-2.4103 3.2977-1.002 5.3744 0.66672 0.98318 0.2534 2.5252 0.25198 3.5944l-5.3125 0.0312s0.16838-3.3798-1.3125-3.375c0 0-3.2784-0.83016-2.5284 4.8573h-108.38v16.03h241.57v-15.026l-5.3033 0.0442z"/>
      <g id="g13443" transform="translate(11.752 162.49)">
        <path id="path8345" style="stroke:#000000;stroke-width:3.3;fill:none" d="m436.88 160.62c-69.084 68.985-103.65 100.94-192.04 103.69 0 0-69.203 3.9576-108.01-25.532v0.17678"/>
        <path id="path8336" style="stroke:#000000;stroke-width:3.3;fill:none" d="m435.81 157.03c-0.00001-0.00001-98.42 91.418-191.26 101.94 0 0-48.299 4.0894-109.05-26.411"/>
        <path id="path11254" style="stroke:#000000;stroke-width:1px;fill:none" d="m410.44 178.56-7.375 15.5"/>
        <path id="path11256" style="stroke:#000000;stroke-width:1px;fill:none" d="m399.31 185.81 15-1"/>
        <path id="path11258" style="stroke:#000000;stroke-width:1px;fill:none" d="m401.31 186.31-5.5 13.5 0.5-0.375"/>
        <path id="path11262" style="stroke:#000000;stroke-width:1px;fill:none" d="m373.25 206.62 15.5-1.125"/>
        <path id="path11264" style="stroke:#000000;stroke-width:1px;fill:none" d="m370.06 208.44-14.375 22.875"/>
        <path id="path11266" style="stroke:#000000;stroke-width:1px;fill:none" d="m353 219.62 21 1.125"/>
        <path id="path11268" style="stroke:#000000;stroke-width:1px;fill:none" d="m350.25 220.38-14 23.62"/>
        <path id="path11270" style="stroke:#000000;stroke-width:1px;fill:none" d="m334.88 228.5 18.375 7"/>
        <path id="path11272" style="stroke:#000000;stroke-width:1px;fill:none" d="m331.62 230.75-14.62 21.63"/>
        <path id="path11274" style="stroke:#000000;stroke-width:1px;fill:none" d="m316 237.75 18.62 8.25"/>
        <path id="path11276" style="stroke:#000000;stroke-width:1px;fill:none" d="m314.25 239.12-16 18.88"/>
        <path id="path11278" style="stroke:#000000;stroke-width:1px;fill:none" d="m297.62 245.88 16.75 7.375"/>
        <path id="path11280" style="stroke:#000000;stroke-width:1px;fill:none" d="m291.88 248.38-12.38 13.62"/>
        <path id="path11282" style="stroke:#000000;stroke-width:1px;fill:none" d="m278.12 252.5 14.375 6.375"/>
        <path id="path11284" style="stroke:#000000;stroke-width:1px;fill:none" d="m272.88 254.5c-0.5 0-11.5 9-11.5 9"/>
        <path id="path11286" style="stroke:#000000;stroke-width:1px;fill:none" d="m260.62 256.62 12.25 5.875"/>
        <path id="path11288" style="stroke:#000000;stroke-width:1px;fill:none" d="m257 258.25-9 6.5"/>
        <path id="path11290" style="stroke:#000000;stroke-width:2;fill:none" d="m246.75 259.5 12.75 5.375"/>
        <path id="path12267" style="stroke:#000000;stroke-width:2;fill:none" d="m409.25 187.5v87.75"/>
        <path id="path12269" style="stroke:#000000;stroke-width:2;fill:none" d="m390.5 193v82.75"/>
        <path id="path12271" style="stroke:#000000;stroke-width:2;fill:none" d="m371.75 204.75v70.875"/>
        <path id="path12273" style="stroke:#000000;stroke-width:2;fill:none" d="m352.5 217.75v57.5"/>
        <path id="path12275" style="stroke:#000000;stroke-width:2;fill:none" d="m333 228.5v46.75"/>
        <path id="path12277" style="stroke:#000000;stroke-width:2;fill:none" d="m315 236.5v38.5l0.48325-0.27901 0.0168 0.029"/>
        <path id="path12279" style="stroke:#000000;stroke-width:2;fill:none" d="m296 244.5v30.75"/>
        <path id="path12281" style="stroke:#000000;stroke-width:2;fill:none" d="m277.75 251v24.75"/>
        <path id="path12283" style="stroke:#000000;stroke-width:2;fill:none" d="m258.75 256.25v19.75"/>
        <path id="path12376" style="stroke:#000000;stroke-width:1px;fill:none" d="m391.56 193.44 13.94-0.88"/>
        <path id="path12378" style="stroke:#000000;stroke-width:1px;fill:none" d="m386.25 196.94-11.5 20.875"/>
        <path id="path7591" style="stroke:#000000;stroke-width:2;fill:none" d="m222.62 271.38v-17.125" transform="translate(0 3.5286)"/>
        <path id="path7593" style="stroke:#000000;stroke-width:2;fill:none" d="m202.75 271.38v-19.625" transform="translate(0 3.5286)"/>
        <path id="path7595" style="stroke:#000000;stroke-width:2;fill:none" d="m184 271v-23.625" transform="translate(0 3.5286)"/>
        <path id="path7597" style="stroke:#000000;stroke-width:2;fill:none" d="m165.12 270.38v-28.625h0.5" transform="translate(0 3.5286)"/>
        <path id="path7599" style="stroke:#000000;stroke-width:2;fill:none" d="m146.88 269.62v-35.375" transform="translate(0 3.5286)"/>
        <path id="path8572" style="stroke:#000000;stroke-width:1px;fill:none" d="m223.25 259.38 14.75-3.38" transform="translate(0 3.5286)"/>
        <path id="path8574" style="stroke:#000000;stroke-width:1px;fill:none" d="m223.38 254 15.75 6.875" transform="translate(0 3.5286)"/>
        <path id="path8576" style="stroke:#000000;stroke-width:1px;fill:none" d="m203.5 257.88 20.5-2.75" transform="translate(0 3.5286)"/>
        <path id="path8578" style="stroke:#000000;stroke-width:1px;fill:none" d="m203.75 251.62 19.25 9.5v-0.125" transform="translate(0 3.5286)"/>
        <path id="path8580" style="stroke:#000000;stroke-width:1px;fill:none" d="m184.25 255.12 18-3" transform="translate(0 3.5286)"/>
        <path id="path8582" style="stroke:#000000;stroke-width:1px;fill:none" d="m184.5 247.62 17.25 11.25" transform="translate(0 3.5286)"/>
        <path id="path8584" style="stroke:#000000;stroke-width:1px;fill:none" d="m165.5 250.75 18.25-3.5" transform="translate(0 3.5286)"/>
        <path id="path8586" style="stroke:#000000;stroke-width:1px;fill:none" d="m165.62 241.5 18 13.75" transform="translate(0 3.5286)"/>
        <path id="path8588" style="stroke:#000000;stroke-width:1px;fill:none" d="m147.12 243.12 17.5-1.5" transform="translate(0 3.5286)"/>
        <path id="path8590" style="stroke:#000000;stroke-width:1px;fill:none" d="m147.62 234.12 16.75 15.75" transform="translate(0 3.5286)"/>
      </g>
      <g id="g12056" transform="matrix(-1 0 0 1 1847 -108.7)">
        <g id="g11860" transform="translate(643.51 271.59)">
          <path id="path11862" style="stroke:#000000;stroke-width:3.3;fill:none" d="m436.88 160.62c-69.084 68.985-103.65 100.94-192.04 103.69 0 0-69.203 3.9576-108.01-25.532"/>
          <path id="path11864" style="stroke:#000000;stroke-width:3.3;fill:none" d="m435.81 157.03c-0.00001-0.00001-98.42 91.418-191.26 101.94 0 0-48.299 4.0894-109.05-26.411"/>
          <path id="path11866" style="stroke:#000000;stroke-width:1px;fill:none" d="m410.44 178.56-7.375 15.5"/>
          <path id="path11868" style="stroke:#000000;stroke-width:1px;fill:none" d="m399.31 185.81 15-1"/>
          <path id="path11870" style="stroke:#000000;stroke-width:1px;fill:none" d="m401.31 186.31-5.5 13.5 0.5-0.375"/>
          <path id="path11872" style="stroke:#000000;stroke-width:1px;fill:none" d="m373.25 206.62 15.5-1.125"/>
          <path id="path11874" style="stroke:#000000;stroke-width:1px;fill:none" d="m370.06 208.44-14.375 22.875"/>
          <path id="path11876" style="stroke:#000000;stroke-width:1px;fill:none" d="m353 219.62 21 1.125"/>
          <path id="path11878" style="stroke:#000000;stroke-width:1px;fill:none" d="m350.25 220.38-14 23.62"/>
          <path id="path11880" style="stroke:#000000;stroke-width:1px;fill:none" d="m334.88 228.5 18.375 7"/>
          <path id="path11882" style="stroke:#000000;stroke-width:1px;fill:none" d="m331.62 230.75-14.62 21.63"/>
          <path id="path11884" style="stroke:#000000;stroke-width:1px;fill:none" d="m316 237.75 18.62 8.25"/>
          <path id="path11886" style="stroke:#000000;stroke-width:1px;fill:none" d="m314.25 239.12-16 18.88"/>
          <path id="path11888" style="stroke:#000000;stroke-width:1px;fill:none" d="m297.62 245.88 16.75 7.375"/>
          <path id="path11890" style="stroke:#000000;stroke-width:1px;fill:none" d="m291.88 248.38-12.38 13.62"/>
          <path id="path11892" style="stroke:#000000;stroke-width:1px;fill:none" d="m278.12 252.5 14.375 6.375"/>
          <path id="path11894" style="stroke:#000000;stroke-width:1px;fill:none" d="m272.88 254.5c-0.5 0-11.5 9-11.5 9"/>
          <path id="path11896" style="stroke:#000000;stroke-width:1px;fill:none" d="m260.62 256.62 12.25 5.875"/>
          <path id="path11898" style="stroke:#000000;stroke-width:1px;fill:none" d="m257 258.25-9 6.5"/>
          <path id="path11900" style="stroke:#000000;stroke-width:2;fill:none" d="m246.75 259.5 12.75 5.375"/>
          <path id="path11902" style="stroke:#000000;stroke-width:2;fill:none" d="m409.25 187.5v87.75"/>
          <path id="path11904" style="stroke:#000000;stroke-width:2;fill:none" d="m390.5 193v82.75"/>
          <path id="path11906" style="stroke:#000000;stroke-width:2;fill:none" d="m371.75 204.75v70.875"/>
          <path id="path11908" style="stroke:#000000;stroke-width:2;fill:none" d="m352.5 217.75v57.5"/>
          <path id="path11910" style="stroke:#000000;stroke-width:2;fill:none" d="m333 228.5v46.75"/>
          <path id="path11912" style="stroke:#000000;stroke-width:2;fill:none" d="m315 236.5v38.5l0.48325-0.27901 0.0168 0.029"/>
          <path id="path11914" style="stroke:#000000;stroke-width:2;fill:none" d="m296 244.5v30.75"/>
          <path id="path11916" style="stroke:#000000;stroke-width:2;fill:none" d="m277.75 251v24.75"/>
          <path id="path11918" style="stroke:#000000;stroke-width:2;fill:none" d="m258.75 256.25v19.75"/>
          <path id="path11920" style="stroke:#000000;stroke-width:1px;fill:none" d="m391.56 193.44 13.94-0.88"/>
          <path id="path11922" style="stroke:#000000;stroke-width:1px;fill:none" d="m386.25 196.94-11.5 20.875"/>
          <path id="path11924" style="stroke:#000000;stroke-width:2;fill:none" d="m222.62 271.38v-17.125" transform="translate(0 3.5286)"/>
          <path id="path11926" style="stroke:#000000;stroke-width:2;fill:none" d="m202.75 271.38v-19.625" transform="translate(0 3.5286)"/>
          <path id="path11928" style="stroke:#000000;stroke-width:2;fill:none" d="m184 271v-23.625" transform="translate(0 3.5286)"/>
          <path id="path11930" style="stroke:#000000;stroke-width:2;fill:none" d="m165.12 270.38v-28.625h0.5" transform="translate(0 3.5286)"/>
          <path id="path11932" style="stroke:#000000;stroke-width:2;fill:none" d="m146.88 269.62v-35.375" transform="translate(0 3.5286)"/>
          <path id="path11934" style="stroke:#000000;stroke-width:1px;fill:none" d="m223.25 259.38 14.75-3.38" transform="translate(0 3.5286)"/>
          <path id="path11936" style="stroke:#000000;stroke-width:1px;fill:none" d="m223.38 254 15.75 6.875" transform="translate(0 3.5286)"/>
          <path id="path11938" style="stroke:#000000;stroke-width:1px;fill:none" d="m203.5 257.88 20.5-2.75" transform="translate(0 3.5286)"/>
          <path id="path11940" style="stroke:#000000;stroke-width:1px;fill:none" d="m203.75 251.62 19.25 9.5v-0.125" transform="translate(0 3.5286)"/>
          <path id="path11942" style="stroke:#000000;stroke-width:1px;fill:none" d="m184.25 255.12 18-3" transform="translate(0 3.5286)"/>
          <path id="path11944" style="stroke:#000000;stroke-width:1px;fill:none" d="m184.5 247.62 17.25 11.25" transform="translate(0 3.5286)"/>
          <path id="path11946" style="stroke:#000000;stroke-width:1px;fill:none" d="m165.5 250.75 18.25-3.5" transform="translate(0 3.5286)"/>
          <path id="path11948" style="stroke:#000000;stroke-width:1px;fill:none" d="m165.62 241.5 18 13.75" transform="translate(0 3.5286)"/>
          <path id="path11950" style="stroke:#000000;stroke-width:1px;fill:none" d="m147.12 243.12 17.5-1.5" transform="translate(0 3.5286)"/>
          <path id="path11952" style="stroke:#000000;stroke-width:1px;fill:none" d="m147.62 234.12 16.75 15.75" transform="translate(0 3.5286)"/>
        </g>
        <path id="path11954" style="stroke:#000000;stroke-width:2.1378;fill:none" d="m752.87 504.26-63.12 38.069"/>
        <path id="path11956" style="stroke:#000000;stroke-width:2.1378;fill:none" d="m755.43 506.38-59.809 36.941"/>
      </g>
      <path id="path2241" style="fill-rule:evenodd;stroke:#000000;stroke-width:1px;fill:#000000" d="m258.52 439.39-0.0442-11.932s-2.3423-0.39774-2.2097-1.2816c0.13258-0.88388 1.461-0.24326 1.8562-1.3258 1.2676-3.4724-0.61872-6.0104-4.0006-6.0645-3.7354 0.0122-5.4008 2.6164-4.1332 6.0889 0.39519 1.0826 1.7236 0.44195 1.8562 1.3258 0.13258 0.88389-2.2097 1.2816-2.2097 1.2816l-0.11049 11.292v0.66292l8.9956-0.0464z"/>
      <path id="path2249" style="fill-rule:evenodd;stroke:#000000;stroke-width:1px;fill:#000000" d="m965.42 439.34-0.0442-11.932s-2.3423-0.39774-2.2097-1.2816c0.13258-0.88388 1.461-0.24326 1.8562-1.3258 1.2676-3.4724-0.61872-6.0104-4.0006-6.0645-3.7354 0.0122-5.4008 2.6164-4.1332 6.0889 0.39519 1.0826 1.7236 0.44195 1.8562 1.3258 0.13258 0.88389-2.2097 1.2816-2.2097 1.2816l-0.11049 11.292v0.66292l8.9956-0.0464z"/>
      <path id="path10593" style="fill-rule:evenodd;stroke:#000000;stroke-width:.90412;fill:#000000" d="m118.79 439.48 313.51 0.0446 0.002-1.7779c-0.0272 0.00001-278.89-0.59044-313.53-0.61335l0.0175 2.3467z"/>
      <path id="path2253" style="fill-rule:evenodd;stroke:#000000;stroke-width:.90412;fill:#000000" d="m118.82 428.69h314.05v5.9618h-314.05l-0.002-5.9618z"/>
      <g id="g2268" transform="matrix(3.2075 0 0 1 -1684.6 162.76)">
        <path id="path2264" style="fill-rule:evenodd;stroke:#000000;stroke-width:1px;fill:#000000" d="m769.47 266.3h174.66v6.1872h-174.83l0.17677-6.1872z"/>
        <path id="path2266" style="fill-rule:evenodd;stroke:#000000;stroke-width:1px;fill:#000000" d="m943.86 275.08c-0.0156 0-175.06-0.22242-175.06-0.22242l0.0141 2.0675h175.05l0.001-1.8451z"/>
      </g>
      <path id="path2276" style="fill-rule:evenodd;stroke:#000000;stroke-width:1px;fill:#000000" d="m712.38 428.77h73.375v41.5h-73.75l0.375-41.5z"/>
      <path id="path2280" style="fill-rule:evenodd;stroke:#000000;stroke-width:1px;fill:#000000" d="m431.25 428.77h73.375v41.5h-73.75l0.375-41.5z"/>
      <g id="g4241" transform="translate(5.8681 144.68)">
        <path id="path2291" style="fill-rule:evenodd;stroke:#000000;stroke-width:1px;fill:#000000" d="m492.4 287.5 94.406-47.051 2.8052 5.5687-94.464 47.04-2.747-5.5578z"/>
        <path id="path2296" style="stroke:#000000;stroke-width:3;fill:none" d="m492.96 315.7c0.0686 0.012 57.375-47.433 95.323-66.831l2.6506-1.3549"/>
        <path id="path3270" style="stroke:#000000;stroke-width:2.9;fill:none" d="m502.99 307.04-9.1642-15.88 17.206 6.7071-5.5763-11.478 16.299 3.8801-5.457-11.057 15.133 3.8189-4.4912-9.415 14.246 2.7305-3.8023-7.6351 11.816 1.6198-3.3902-5.8161 10.79 1.045-2.7985-5.0246 9.3673 0.56837-2.2068-4.2331 8.5377 0.29035-3.1525-6.132"/>
      </g>
      <g id="g4247" transform="matrix(-1 0 0 1 1209.7 143.82)">
        <path id="path4249" style="fill-rule:evenodd;stroke:#000000;stroke-width:1px;fill:#000000" d="m492.4 287.5 94.406-47.051 2.8052 5.5687-94.464 47.04-2.747-5.5578z"/>
        <path id="path4251" style="stroke:#000000;stroke-width:3;fill:none" d="m492.96 315.7c0.0686 0.012 57.375-47.433 95.323-66.831l2.6506-1.3549"/>
        <path id="path4253" style="stroke:#000000;stroke-width:2.9;fill:none" d="m502.99 307.04-9.1642-15.88 17.206 6.7071-5.5763-11.478 16.299 3.8801-5.457-11.057 15.133 3.8189-4.4912-9.415 14.246 2.7305-3.8023-7.6351 11.816 1.6198-3.3902-5.8161 10.79 1.045-2.7985-5.0246 9.3673 0.56837-2.2068-4.2331 8.5377 0.29035-3.1525-6.132"/>
      </g>
      <path id="path12772" style="fill-rule:evenodd;stroke:#000000;stroke-width:.20552;fill:#000000" d="m133.36 346.3c0.34384-0.15103 0.61555-0.5522 0.61555-0.96986 0-0.55393-0.42562-1.0035-0.95005-1.0035-0.52441 0-0.95003 0.44957-0.95003 1.0035 0 0.43456 0.26193 0.80489 0.66522 0.96684l-0.0954 5.6222-1.5908 0.0233v1.0787h0.59511s0.1314 1.6391-0.18081 2.844c-4.1244 10.75-7.9341 12.057-7.9341 12.057l-4.6482-0.0448-2.2428 4.2941-0.0461 14.728-2.3894 0.026-0.033 3.3075h2.4684v34.494l-2.7396 7.0945 0.0884 35.473 37.667-0.001-0.0884-35.938-2.828-7.0946v-34.029h2.4684l-0.0329-3.3075-2.3894-0.026-0.0461-14.728-1.9777-4.1074-4.1009-0.14191s-3.3108-2.0288-7.9859-12.211c-0.12029-1.8597 0.0135-2.6974-0.008-2.7134l0.59278 0.008-0.011-1.1085h-1.6129l-0.27955-5.5959z"/>
      <path id="path12108" style="fill-rule:evenodd;stroke:#000000;stroke-width:.20552;fill:#000000" d="m1081.4 346.3c0.3439-0.15103 0.6156-0.5522 0.6156-0.96986 0-0.55393-0.4256-1.0035-0.95-1.0035-0.5245 0-0.9501 0.44957-0.9501 1.0035 0 0.43456 0.2619 0.80489 0.6652 0.96684l-0.095 5.6222-1.5908 0.0233v1.0787h0.5951s0.1314 1.6391-0.1808 2.844c-4.1244 10.75-7.9341 12.057-7.9341 12.057l-4.6481-0.0448-2.2429 4.2941-0.046 14.728-2.3893 0.026-0.033 3.3075h2.4684v34.494l-2.7396 7.0945 0.088 35.473 37.667-0.001-0.088-35.938-2.828-7.0946v-34.029h2.4684l-0.033-3.3075-2.3894-0.026-0.046-14.728-1.9777-4.1074-4.1009-0.14191s-3.3108-2.0288-7.9859-12.211c-0.1203-1.8597 0.014-2.6974-0.01-2.7134l0.5928 0.008-0.011-1.1085h-1.6129l-0.2796-5.5959z"/>
    </g>
  </g>
  <g id="layer4">
    <path id="path2912" style="fill-rule:evenodd;stroke:#000000;stroke-width:.071779px;fill:#000000" d="m405.48 121.66h10.996v-1.5737h-1.0895v-1.2913h-1.2509v-2.9457l-0.76316-0.4406v-4.2806l0.72281-0.50439v-0.5044l-0.78686-0.48422v-0.44387l0.01-0.32368s0.0143-0.27106-0.24253-0.28533c0.0143-0.0143 0.15693-0.45652-0.19973-0.61346 0.0428 0-0.24253-29.632-0.24253-29.632s-0.19489-0.15386-0.31858-0.18393c0.0618-0.03007 0.34711-2.4554 1.0319-3.026 0.00047-0.0513-0.003-0.1039-0.003-0.1039l-0.13619-0.01009v-0.17149l0.16645-0.07062v-0.14123s-0.68094-0.05548-0.80703-0.32786c-0.005-0.02522-0.27742-1.377-0.95836-1.5233 0.0325-0.0034-0.47917-0.005-0.53504-0.0039-0.0559 0.0012-0.58099 0.0051-0.53504 0.0062-0.55981 0.07899-0.95331 1.4981-0.95835 1.5233-0.1261 0.27237-0.80704 0.32786-0.80704 0.32786v0.14123l0.16646 0.07062v0.1715l-0.13619 0.01009s-0.004 0.05259-0.003 0.1039c0.68479 0.57066 0.97012 2.996 1.0319 3.026-0.12369 0.03007-0.31857 0.18393-0.31857 0.18393s-0.28533 29.632-0.24253 29.632c-0.35667 0.15693-0.214 0.5992-0.19973 0.61346-0.2568 0.0143-0.24253 0.28533-0.24253 0.28533l0.01 0.32368v0.44387l-0.78686 0.48422v0.5044l0.7228 0.50439v4.2805l-0.76315 0.44061v2.9457h-1.2509v1.2913h-1.0895v1.5737h10.996"/>
    <path id="path2914" style="fill-rule:evenodd;stroke:#000000;stroke-width:.071779px;fill:#000000" d="m410.18 72.973-0.99592-0.009s0.28711-0.38581 0.323-0.61909c0.0538-0.23328 0.36786-0.27814 0.41272-0.44862 0 0.05383 0.26918-1.6868 0.38582-1.7586 0.11664-0.07178-0.10767-0.09869-0.10767-0.09869s-0.0718 0.18842-0.18842 0.19739c-0.10767 0.009-0.20636-0.5204-0.20636-0.5204l-0.009-0.59217 0.0807-0.05383 0.018-0.17945 0.28711-0.0628s0.11664 0.01794 0.21534 0.10767c0.009 0 0.12561-0.13458 0.23328-0.10767 0.0987 0.009 0.0359-0.35889 0.0359-0.35889l-0.30506-0.01794s0.19739-0.92415 0.65498-0.98696c0.009 0-0.0112-0.12279 0.0179-0.13458 0.083-0.03365 0.14295-0.01547 0.16151 0 0.0135 0.01121 0.0179 0.18842 0.0179 0.18842s0.17945 0.12561 0.26917 0.25123c-0.009-0.05383 0.15253 0.25122 0.15253 0.25122s0.0908 0.0116 0.0987 0.01795c0.0223 0.01786-0.001 0.17519-0.009 0.19739-0.004 0.01232-0.2243 0.05383-0.2243 0.05383l-0.13459 0.07178-0.0628 0.03589-0.0179 0.45759 0.21534 0.10767 0.0359 0.07178s0.19687-0.02102 0.32301 0c0.0269 0.0045 0.14355 0.19739 0.10767 0.38581-0.018 0.18842 0.0807 0.47553 0.0807 0.47553l0.12561 0.28712 0.0808 0.34992 0.18842 0.04486 0.0718 0.13459-0.009 0.11664-0.21534 0.08973-0.47553 2.0277-0.14356-0.05383 0.52039-2.0188s-0.11664 0.009-0.17047-0.04486c-0.0538-0.05383-0.28711-0.59217-0.27814-0.70881-0.0179-0.01795-0.0897-0.02692-0.0897-0.02692v0.24225l0.0628 0.03589-0.009 1.1395-0.13459 0.60114-0.26019 0.02692s-0.0807 0.19739-0.0269 0.25122c0 0.01794 0.36787 0.03589 0.35889 0.4217-0.0718-0.01794-1.4625 0.17945-1.4625 0.1615z"/>
  </g>
  <g id="layer3">
    <g id="g3766" transform="translate(8.5414 11.082)">
      <path id="path2836" style="fill:#000000" d="m181.3 45.924a4.3403 4.3403 0 1 1 -8.6806 0 4.3403 4.3403 0 1 1 8.6806 0z" transform="matrix(.52798 0 0 .52798 259.89 20.132)"/>
      <path id="path2838" style="fill:#000000" d="m181.3 45.924a4.3403 4.3403 0 1 1 -8.6806 0 4.3403 4.3403 0 1 1 8.6806 0z" transform="matrix(.52798 0 0 .52798 251.09 21.841)"/>
      <path id="path2840" style="fill:#000000" d="m181.3 45.924a4.3403 4.3403 0 1 1 -8.6806 0 4.3403 4.3403 0 1 1 8.6806 0z" transform="matrix(.52798 0 0 .52798 244.02 24.592)"/>
      <path id="path2842" style="fill:#000000" d="m181.3 45.924a4.3403 4.3403 0 1 1 -8.6806 0 4.3403 4.3403 0 1 1 8.6806 0z" transform="matrix(.52798 0 0 .52798 237.44 28.8)"/>
      <path id="path2844" style="fill:#000000" d="m181.3 45.924a4.3403 4.3403 0 1 1 -8.6806 0 4.3403 4.3403 0 1 1 8.6806 0z" transform="matrix(.52798 0 0 .52798 232.05 34.032)"/>
      <path id="path2846" style="fill:#000000" d="m181.3 45.924a4.3403 4.3403 0 1 1 -8.6806 0 4.3403 4.3403 0 1 1 8.6806 0z" transform="matrix(.52798 0 0 .52798 227.68 40.236)"/>
      <path id="path2848" style="fill:#000000" d="m181.3 45.924a4.3403 4.3403 0 1 1 -8.6806 0 4.3403 4.3403 0 1 1 8.6806 0z" transform="matrix(.52798 0 0 .52798 224.44 47.357)"/>
      <path id="path2850" style="fill:#000000" d="m181.3 45.924a4.3403 4.3403 0 1 1 -8.6806 0 4.3403 4.3403 0 1 1 8.6806 0z" transform="matrix(.52798 0 0 .52798 222.72 54.909)"/>
      <path id="path2852" style="fill:#000000" d="m181.3 45.924a4.3403 4.3403 0 1 1 -8.6806 0 4.3403 4.3403 0 1 1 8.6806 0z" transform="matrix(.52798 0 0 .52798 222.18 62.569)"/>
      <path id="path2854" style="fill:#000000" d="m181.3 45.924a4.3403 4.3403 0 1 1 -8.6806 0 4.3403 4.3403 0 1 1 8.6806 0z" transform="matrix(.52798 0 0 .52798 223.47 70.445)"/>
      <path id="path2856" style="fill:#000000" d="m181.3 45.924a4.3403 4.3403 0 1 1 -8.6806 0 4.3403 4.3403 0 1 1 8.6806 0z" transform="matrix(.52798 0 0 .52798 225.95 77.782)"/>
      <path id="path2858" style="fill:#000000" d="m181.3 45.924a4.3403 4.3403 0 1 1 -8.6806 0 4.3403 4.3403 0 1 1 8.6806 0z" transform="matrix(.52798 0 0 .52798 230.11 85.01)"/>
      <path id="path2860" style="fill:#000000" d="m181.3 45.924a4.3403 4.3403 0 1 1 -8.6806 0 4.3403 4.3403 0 1 1 8.6806 0z" transform="matrix(.52798 0 0 .52798 236.31 91.484)"/>
      <path id="path2862" style="fill:#000000" d="m181.3 45.924a4.3403 4.3403 0 1 1 -8.6806 0 4.3403 4.3403 0 1 1 8.6806 0z" transform="matrix(.52798 0 0 .52798 243.27 96.393)"/>
      <path id="path2864" style="fill:#000000" d="m181.3 45.924a4.3403 4.3403 0 1 1 -8.6806 0 4.3403 4.3403 0 1 1 8.6806 0z" transform="matrix(.52798 0 0 .52798 252.36 99.899)"/>
      <path id="path2866" style="fill:#000000" d="m181.3 45.924a4.3403 4.3403 0 1 1 -8.6806 0 4.3403 4.3403 0 1 1 8.6806 0z" transform="matrix(.52798 0 0 .52798 262.77 100.76)"/>
      <path id="path2868" style="fill:#000000" d="m181.3 45.924a4.3403 4.3403 0 1 1 -8.6806 0 4.3403 4.3403 0 1 1 8.6806 0z" transform="matrix(.52798 0 0 .52798 271.83 100.25)"/>
      <path id="path2870" style="fill:#000000" d="m181.3 45.924a4.3403 4.3403 0 1 1 -8.6806 0 4.3403 4.3403 0 1 1 8.6806 0z" transform="matrix(.52798 0 0 .52798 281.35 97.094)"/>
      <path id="path2872" style="fill:#000000" d="m181.3 45.924a4.3403 4.3403 0 1 1 -8.6806 0 4.3403 4.3403 0 1 1 8.6806 0z" transform="matrix(.52798 0 0 .52798 289.28 91.861)"/>
      <path id="path2874" style="fill:#000000" d="m181.3 45.924a4.3403 4.3403 0 1 1 -8.6806 0 4.3403 4.3403 0 1 1 8.6806 0z" transform="matrix(.52798 0 0 .52798 295.22 85.55)"/>
      <path id="path2876" style="fill:#000000" d="m181.3 45.924a4.3403 4.3403 0 1 1 -8.6806 0 4.3403 4.3403 0 1 1 8.6806 0z" transform="matrix(.52798 0 0 .52798 299.59 78.591)"/>
      <path id="path2878" style="fill:#000000" d="m181.3 45.924a4.3403 4.3403 0 1 1 -8.6806 0 4.3403 4.3403 0 1 1 8.6806 0z" transform="matrix(.52798 0 0 .52798 302.34 70.931)"/>
      <path id="path2880" style="fill:#000000" d="m181.3 45.924a4.3403 4.3403 0 1 1 -8.6806 0 4.3403 4.3403 0 1 1 8.6806 0z" transform="matrix(.52798 0 0 .52798 303.69 63.27)"/>
      <path id="path2882" style="fill:#000000" d="m181.3 45.924a4.3403 4.3403 0 1 1 -8.6806 0 4.3403 4.3403 0 1 1 8.6806 0z" transform="matrix(.52798 0 0 .52798 303.53 55.341)"/>
      <path id="path2884" style="fill:#000000" d="m181.3 45.924a4.3403 4.3403 0 1 1 -8.6806 0 4.3403 4.3403 0 1 1 8.6806 0z" transform="matrix(.52798 0 0 .52798 301.64 47.357)"/>
      <path id="path2886" style="fill:#000000" d="m181.3 45.924a4.3403 4.3403 0 1 1 -8.6806 0 4.3403 4.3403 0 1 1 8.6806 0z" transform="matrix(.52798 0 0 .52798 298.62 40.668)"/>
      <path id="path2888" style="fill:#000000" d="m181.3 45.924a4.3403 4.3403 0 1 1 -8.6806 0 4.3403 4.3403 0 1 1 8.6806 0z" transform="matrix(.52798 0 0 .52798 293.92 34.086)"/>
      <path id="path2890" style="fill:#000000" d="m181.3 45.924a4.3403 4.3403 0 1 1 -8.6806 0 4.3403 4.3403 0 1 1 8.6806 0z" transform="matrix(.52798 0 0 .52798 288.64 28.908)"/>
      <path id="path2892" style="fill:#000000" d="m181.3 45.924a4.3403 4.3403 0 1 1 -8.6806 0 4.3403 4.3403 0 1 1 8.6806 0z" transform="matrix(.52798 0 0 .52798 282.06 24.646)"/>
      <path id="path2894" style="fill:#000000" d="m181.3 45.924a4.3403 4.3403 0 1 1 -8.6806 0 4.3403 4.3403 0 1 1 8.6806 0z" transform="matrix(.52798 0 0 .52798 274.94 21.733)"/>
      <path id="path2896" style="fill:#000000" d="m181.3 45.924a4.3403 4.3403 0 1 1 -8.6806 0 4.3403 4.3403 0 1 1 8.6806 0z" transform="matrix(.52798 0 0 .52798 267.71 20.276)"/>
      <path id="path2898" style="stroke:#000000;stroke-width:0.9;fill:none" d="m245.19 205.37a30.961 30.961 0 1 1 -61.922 0 30.961 30.961 0 1 1 61.922 0z" transform="matrix(1.0718 0 0 1.0718 126.2 -135.68)"/>
      <path id="path2900" style="stroke:#000000;stroke-width:2.8275;fill:none" d="m307.72 218.7a79.737 79.737 0 1 1 -159.47 0 79.737 79.737 0 1 1 159.47 0z" transform="matrix(.47731 0 0 .47731 247.51 -19.712)"/>
      <path id="path2902" style="stroke:#000000;stroke-width:.30554px;fill:none" d="m343.79 53.471-3.433-2.9372 0.26702 4.4629-3.3186-2.7464 0.26702 4.2722-3.0897-2.5939 0.64846 4.3104-3.3186-1.9454 1.1062 3.8145-4.1959-1.1062 1.8309 3.4712-3.9289-0.80104 1.9835 3.5475-4.3485-0.61032 2.5938 3.3567h-4.1196l2.6701 2.2887-4.0052 0.72475 2.7464 2.2505-4.1196 1.2588 3.0134 2.4031-3.5093 1.7928 3.2423 1.6021-4.1196 2.2124 3.2042 0.61032-3.3568 2.9372 3.7382 0.45774-3.3568 3.2042 4.1196 0.19072-3.5475 3.2423 4.1196-0.07629-3.2423 3.0516 4.5392 0.07629-3.0134 3.1279 4.1196-0.45774-2.8227 4.1196 4.5011-1.4495-2.5938 4.73 4.3485-1.9072-1.6021 5.531 4.3104-2.5176-1.2588 5.5692 4.463-2.7846-0.80104 5.4929 3.9289-3.1279-0.3433 5.7599 3.8908-3.8908 0.72475 5.6073 3.5856-3.9671 1.0299 5.6073 3.0897-4.5392 1.5639 5.264 2.3268-4.9588 2.5176 5.264 1.6021-5.2258 2.5557 4.8825 1.4495-5.531 3.2805 4.5774 0.68661-5.4547 3.7382 4.1578 0.15258-5.6073 3.9671 3.8145-0.30516-5.9506 4.1578 3.3567-0.87733-5.4547 3.8908 2.9753-1.068-5.7599 4.5011 2.2124-1.6021-5.6073 4.6155 1.831-2.4413-5.0351 4.8444 1.5258-3.2805-4.9588 5.0733 0.45774-3.7-3.8908 4.5392-0.22887-3.8145-3.433 4.8062-1.2588-4.3104-2.9372 4.5774-1.1825-4.1959-2.1743 4.2341-1.1825-4.6918-1.6402 4.1578-2.5939-5.1114-0.41959 3.8526-2.8609h-4.2341l4.1578-2.899-5.3403 0.15258 3.433-3.6619-4.9588 1.2206 3.3567-3.7763-4.8444 0.45774 2.2124-4.3867-4.5774 1.7928 1.7547-4.997-4.0052 2.4031 1.1444-5.1114-3.9671 2.9753 0.26701-5.5692-3.3758 3.3758-0.64455-5.612-3.938 3.0749-0.80917-5.0169-3.0209 3.8301-0.64734-4.6932-2.8051 4.1538-1.4565-4.7472-1.6723 4.0998-2.1038-4.5853-1.4026 4.5853-2.8051-4.0459-0.37761 4.3156-3.6143-3.6143-0.21578 4.5314-3.3446-3.2906-0.49469 4.4397z"/>
      <path id="path2904" style="stroke:#000000;stroke-width:0.9;fill:#000000" d="m190.13 167.3a8.3644 8.3644 0 1 1 -16.729 0 8.3644 8.3644 0 1 1 16.729 0z" transform="matrix(.30554 0 0 .30554 300.73 32.489)"/>
      <path id="path2906" style="fill-rule:evenodd;stroke:#000000;stroke-width:.34863px;fill:#000000" d="m355.14 85.791 0.8113 0.01007s-1.1931 11.455-4.7483 43.972l-4.1525-0.0806"/>
      <path id="path2908" style="fill-rule:evenodd;stroke:#000000;stroke-width:.35273px;fill:#000000" d="m356.81 85.753-0.83061 0.01007s1.7163 13.764 5.2866 44.121l3.8259-0.23312"/>
    </g>
  </g>
  <g id="layer2">
    <g id="g3522" transform="translate(8.5414 12.582)">
      <g id="g3172" transform="matrix(.20584 0 0 .20584 657.44 -109.66)">
        <g id="g3174" transform="translate(0 7.8453)">
          <path id="path3176" style="fill-rule:evenodd;stroke:#000000;stroke-width:.12335;fill:#0f0f0f" d="m-1681 1090.8v-171.9h3.3316v-42.268h-6.407v-6.839h-2.9472l-8.7137-14.415v-13.152l-9.4105-29.756-0.063-5.5224v5.5215l-10.211 29.756v13.152l-8.7137 14.415h-2.9471v6.839h-6.4071v42.268h3.3317v171.92l49.159-0.025z"/>
          <path id="path3178" style="fill:#ffffff" d="m279.57 282.48a33.948 33.948 0 1 1 -67.895 0 33.948 33.948 0 1 1 67.895 0z" transform="matrix(.43886 0 0 .43886 -1814.6 772.84)"/>
        </g>
        <path id="path3180" style="fill-rule:evenodd;fill:#0f0f0f" d="m-1783.8 1021 80.458-0.2332v77.83l-80.625 0.2332 0.1669-77.83z"/>
      </g>
      <path id="path3182" style="fill-rule:evenodd;fill:#0f0f0f" d="m101.7 69.632-2.3476 3.5843-0.1069-11.79-1.4919-2.2561-1.9286 2.1833-0.02886 54.626 19.326-6.9785v6.9987l0.0288-54.392-1.5953-2.6502-1.8783 2.4701v11.836l-2.2644-3.5716-2.089-0.0059-0.0492-3.3704-1.843-2.9611-1.8168 3.0331 0.004 3.246-1.9188-0.0022z"/>
      <path id="path3184" style="fill-rule:evenodd;stroke:#000000;stroke-width:.018123;fill:#0e0e0e" d="m193.3 109.99v-15.563l-1.9222-5.3822v-4.3571s-3.2438-7.9312-3.3719-13.442c-0.0546-0.20027-0.0694-0.2065-0.1198-0.0075-0.12814 5.5104-3.3579 13.448-3.3579 13.448v4.357l-1.9222 4.2542v16.691"/>
      <path id="path3186" style="fill-rule:evenodd;stroke:#000000;stroke-width:.20584px;fill:#000000" d="m165.44 128.28h-11.094v-35.224l1.4396-3.2578 1.1265 3.2385 0.0147 3.3342h6.072v-3.6204l1.1954-2.9401 1.2329 2.9963 0.0132 35.473z"/>
      <path id="path3188" style="fill-rule:evenodd;stroke:#000000;stroke-width:.20584px;fill:#000000" d="m221.53 128.3h-11.094v-35.224l1.4396-3.2578 1.1265 3.2385 0.0147 3.3342h6.072v-3.6204l1.1953-2.9401 1.2329 2.9963 0.0132 35.473z"/>
      <g id="g3190" transform="matrix(.20584 0 0 .20584 61.219 38.348)">
        <path id="path3192" style="fill-rule:evenodd;stroke:#000000;stroke-width:1px;fill:#000000" d="m213.88 436.87h-53.896v-171.12l6.9937-15.827 5.4726 15.733 0.0714 16.198h29.498v-17.588l5.807-14.283 5.9895 14.556 0.0642 172.33z"/>
        <path id="path3194" style="fill-rule:evenodd;stroke:#000000;stroke-width:1px;fill:#000000" d="m125.61 436.89-53.896 0.0833v-171.2l6.9937-15.827 5.4726 15.733 0.07137 16.198h29.498v-17.588l5.807-14.283 5.9895 14.556 0.0642 172.33z"/>
        <path id="path3196" style="fill-rule:evenodd;stroke:#000000;stroke-width:.23449;fill:#000000" d="m134.16 311.02 0.16278 1.2767c1.4458 0.89706 1.6015 3.1244 1.5678 3.138l-0.0485 13.527-3.4796 0.0216-0.0485-13.549c-0.0338-0.0136 0.12193-2.2409 1.5678-3.138l0.0982-1.2767 0.18002 0.00045z"/>
        <path id="path3198" style="fill-rule:evenodd;stroke:#000000;stroke-width:1.8606px;fill:#000000" d="m92.34 329.55h102.11l-2.3471 106.91-100.55 0.0438 0.78672-106.95z"/>
        <path id="path3200" style="fill-rule:evenodd;stroke:#000000;stroke-width:.23449;fill:#000000" d="m152.87 311.02 0.16278 1.2767c1.4458 0.89706 1.6015 3.1244 1.5678 3.138l-0.0485 13.527-3.4796 0.0216-0.0485-13.549c-0.0338-0.0136 0.12193-2.2409 1.5678-3.138l0.0982-1.2767 0.18002 0.00045z"/>
      </g>
      <g id="g3202" transform="matrix(.20584 0 0 .20584 61.219 38.348)">
        <path id="path3204" style="fill-rule:evenodd;stroke:#000000;stroke-width:1px;fill:#000000" d="m1159.8 436.92h-53.896v-171.12l6.9937-15.827 5.4726 15.733 0.071 16.198h29.498v-17.588l5.807-14.283 5.9895 14.556 0.064 172.33z"/>
        <path id="path3206" style="fill-rule:evenodd;stroke:#000000;stroke-width:1px;fill:#000000" d="m1071.5 436.93h-53.896v-171.12l6.9938-15.827 5.4725 15.733 0.071 16.198h29.498v-17.588l5.8071-14.283 5.9895 14.556 0.064 172.33z"/>
        <path id="path3208" style="fill-rule:evenodd;stroke:#000000;stroke-width:.23449;fill:#000000" d="m1080.1 311.07 0.1628 1.2767c1.4458 0.89706 1.6015 3.1244 1.5678 3.138l-0.049 13.527-3.4795 0.0216-0.048-13.549c-0.034-0.0136 0.1219-2.2409 1.5677-3.138l0.098-1.2767 0.18 0.00045z"/>
        <path id="path3210" style="fill-rule:evenodd;stroke:#000000;stroke-width:1.8359px;fill:#000000" d="m1039.6 329.58h99.399l-2.2845 106.93-97.88 0.0438 0.7657-106.98z"/>
        <path id="path3212" style="fill-rule:evenodd;stroke:#000000;stroke-width:.23449;fill:#000000" d="m1098.8 311.07 0.1628 1.2767c1.4458 0.89706 1.6015 3.1244 1.5678 3.138l-0.048 13.527-3.4796 0.0216-0.049-13.549c-0.034-0.0136 0.1219-2.2409 1.5678-3.138l0.098-1.2767 0.18 0.00045z"/>
      </g>
      <g id="g3214" transform="matrix(.20584 0 0 .20584 61.219 38.348)">
        <path id="path3216" style="fill-rule:evenodd;stroke:#000000;stroke-width:.23449;fill:#000000" d="m229.56 325.34 0.16278 1.2767c1.4458 0.89706 1.6015 3.1244 1.5678 3.138l-0.0485 13.527-3.4796 0.0216-0.0485-13.549c-0.0338-0.0136 0.12193-2.2409 1.5678-3.138l0.0982-1.2767 0.18002 0.00045z"/>
        <path id="path3218" style="fill-rule:evenodd;stroke:#000000;stroke-width:.23449;fill:#000000" d="m250.09 325.34 0.16278 1.2767c1.4458 0.89706 1.6015 3.1244 1.5678 3.138l-0.0485 13.527-3.4796 0.0216-0.0485-13.549c-0.0338-0.0136 0.12193-2.2409 1.5678-3.138l0.0982-1.2767 0.18002 0.00045z"/>
        <path id="path3220" style="fill-rule:evenodd;stroke:#000000;stroke-width:.23449;fill:#000000" d="m271.03 325.34 0.16278 1.2767c1.4458 0.89706 1.6015 3.1244 1.5678 3.138l-0.0485 13.527-3.4796 0.0216-0.0485-13.549c-0.0338-0.0136 0.12193-2.2409 1.5678-3.138l0.0982-1.2767 0.18002 0.00045z"/>
        <path id="path3222" style="fill-rule:evenodd;stroke:#000000;stroke-width:.23449;fill:#000000" d="m291.56 325.34 0.16278 1.2767c1.4458 0.89706 1.6015 3.1244 1.5678 3.138l-0.0485 13.527-3.4796 0.0216-0.0485-13.549c-0.0338-0.0136 0.12193-2.2409 1.5678-3.138l0.0982-1.2767 0.18002 0.00045z"/>
        <path id="path3224" style="fill-rule:evenodd;stroke:#000000;stroke-width:.23449;fill:#000000" d="m312.36 325.7 0.16278 1.2767c1.4458 0.89706 1.6015 3.1244 1.5678 3.138l-0.0485 13.527-3.4796 0.0216-0.0485-13.549c-0.0338-0.0136 0.12193-2.2409 1.5678-3.138l0.0982-1.2767 0.18002 0.00045z"/>
        <path id="path3226" style="fill-rule:evenodd;stroke:#000000;stroke-width:.23449;fill:#000000" d="m332.89 325.7 0.16278 1.2767c1.4458 0.89706 1.6015 3.1244 1.5678 3.138l-0.0485 13.527-3.4796 0.0216-0.0485-13.549c-0.0338-0.0136 0.12193-2.2409 1.5678-3.138l0.0982-1.2767 0.18002 0.00045z"/>
        <path id="path3228" style="fill-rule:evenodd;stroke:#000000;stroke-width:.23449;fill:#000000" d="m353.83 325.7 0.16278 1.2767c1.4458 0.89706 1.6015 3.1244 1.5678 3.138l-0.0485 13.527-3.4796 0.0216-0.0485-13.549c-0.0338-0.0136 0.12193-2.2409 1.5678-3.138l0.0982-1.2767 0.18002 0.00045z"/>
        <path id="path3230" style="fill-rule:evenodd;stroke:#000000;stroke-width:.23449;fill:#000000" d="m374.36 325.7 0.16278 1.2767c1.4458 0.89706 1.6015 3.1244 1.5678 3.138l-0.0485 13.527-3.4796 0.0216-0.0485-13.549c-0.0338-0.0136 0.12193-2.2409 1.5678-3.138l0.0982-1.2767 0.18002 0.00045z"/>
        <path id="path3232" style="fill-rule:evenodd;stroke:#000000;stroke-width:.23449;fill:#000000" d="m396.16 324.99 0.16278 1.2767c1.4458 0.89706 1.6015 3.1244 1.5678 3.138l-0.0485 13.527-3.4796 0.0216-0.0485-13.549c-0.0338-0.0136 0.12193-2.2409 1.5678-3.138l0.0982-1.2767 0.18002 0.00045z"/>
        <path id="path3234" style="fill-rule:evenodd;stroke:#000000;stroke-width:.23449;fill:#000000" d="m417.1 324.99 0.16278 1.2767c1.4458 0.89706 1.6015 3.1244 1.5678 3.138l-0.0485 13.527-3.4796 0.0216-0.0485-13.549c-0.0338-0.0136 0.12193-2.2409 1.5678-3.138l0.0982-1.2767 0.18002 0.00045z"/>
        <path id="path3236" style="fill-rule:evenodd;stroke:#000000;stroke-width:.23449;fill:#000000" d="m437.63 324.99 0.16278 1.2767c1.4458 0.89706 1.6015 3.1244 1.5678 3.138l-0.0485 13.527-3.4796 0.0216-0.0485-13.549c-0.0338-0.0136 0.12193-2.2409 1.5678-3.138l0.0982-1.2767 0.18002 0.00045z"/>
        <path id="path3238" style="fill-rule:evenodd;stroke:#000000;stroke-width:1.1498px;fill:#000000" d="m175.23 342.82h315.97v93.987l-317.13 0.0787 1.1586-94.065z"/>
      </g>
      <g id="g3240" transform="matrix(.20584 0 0 .20584 61.219 38.348)">
        <path id="path3242" style="fill-rule:evenodd;stroke:#000000;stroke-width:.23595;fill:#000000" d="m792.86 325.43 0.16481 1.2767c1.4639 0.89706 1.6215 3.1244 1.5873 3.138l-0.0491 13.527-3.523 0.0216-0.0491-13.549c-0.0342-0.0136 0.12345-2.2409 1.5873-3.138l0.0995-1.2767 0.18226 0.00045z"/>
        <path id="path3244" style="fill-rule:evenodd;stroke:#000000;stroke-width:.23595;fill:#000000" d="m813.65 325.43 0.16481 1.2767c1.4639 0.89706 1.6215 3.1244 1.5873 3.138l-0.0491 13.527-3.523 0.0216-0.0491-13.549c-0.0342-0.0136 0.12345-2.2409 1.5873-3.138l0.0994-1.2767 0.18227 0.00045z"/>
        <path id="path3246" style="fill-rule:evenodd;stroke:#000000;stroke-width:.23595;fill:#000000" d="m834.85 325.43 0.16481 1.2767c1.4639 0.89706 1.6215 3.1244 1.5873 3.138l-0.0491 13.527-3.523 0.0216-0.0491-13.549c-0.0342-0.0136 0.12345-2.2409 1.5873-3.138l0.0995-1.2767 0.18227 0.00045z"/>
        <path id="path3248" style="fill-rule:evenodd;stroke:#000000;stroke-width:.23595;fill:#000000" d="m855.64 325.43 0.16481 1.2767c1.4639 0.89706 1.6215 3.1244 1.5873 3.138l-0.0491 13.527-3.523 0.0216-0.0491-13.549c-0.0342-0.0136 0.12345-2.2409 1.5873-3.138l0.0995-1.2767 0.18226 0.00045z"/>
        <path id="path3250" style="fill-rule:evenodd;stroke:#000000;stroke-width:.23595;fill:#000000" d="m876.7 325.79 0.16482 1.2767c1.4639 0.89706 1.6215 3.1244 1.5873 3.138l-0.0491 13.527-3.523 0.0216-0.0491-13.549c-0.0342-0.0136 0.12345-2.2409 1.5873-3.138l0.0995-1.2767 0.18226 0.00045z"/>
        <path id="path3252" style="fill-rule:evenodd;stroke:#000000;stroke-width:.23595;fill:#000000" d="m897.48 325.79 0.16481 1.2767c1.4639 0.89706 1.6215 3.1244 1.5873 3.138l-0.0491 13.527-3.523 0.0216-0.0491-13.549c-0.0342-0.0136 0.12345-2.2409 1.5873-3.138l0.0995-1.2767 0.18227 0.00045z"/>
        <path id="path3254" style="fill-rule:evenodd;stroke:#000000;stroke-width:.23595;fill:#000000" d="m918.68 325.79 0.16481 1.2767c1.4639 0.89706 1.6215 3.1244 1.5873 3.138l-0.0491 13.527-3.523 0.0216-0.0491-13.549c-0.0342-0.0136 0.12345-2.2409 1.5873-3.138l0.0995-1.2767 0.18227 0.00045z"/>
        <path id="path3256" style="fill-rule:evenodd;stroke:#000000;stroke-width:.23595;fill:#000000" d="m939.47 325.79 0.16481 1.2767c1.4639 0.89706 1.6215 3.1244 1.5873 3.138l-0.0491 13.527-3.523 0.0216-0.0491-13.549c-0.0342-0.0136 0.12345-2.2409 1.5873-3.138l0.0995-1.2767 0.18226 0.00045z"/>
        <path id="path3258" style="fill-rule:evenodd;stroke:#000000;stroke-width:.23595;fill:#000000" d="m961.55 325.08 0.16481 1.2767c1.4639 0.89706 1.6215 3.1244 1.5873 3.138l-0.0491 13.527-3.523 0.0216-0.0491-13.549c-0.0342-0.0136 0.12345-2.2409 1.5873-3.138l0.0995-1.2767 0.18227 0.00045z"/>
        <path id="path3260" style="fill-rule:evenodd;stroke:#000000;stroke-width:.23595;fill:#000000" d="m982.75 325.08 0.16481 1.2767c1.4639 0.89706 1.6215 3.1244 1.5873 3.138l-0.0491 13.527-3.523 0.0216-0.0491-13.549c-0.0342-0.0136 0.12345-2.2409 1.5873-3.138l0.0995-1.2767 0.18227 0.00045z"/>
        <path id="path3262" style="fill-rule:evenodd;stroke:#000000;stroke-width:.23595;fill:#000000" d="m1003.5 325.08 0.1648 1.2767c1.4639 0.89706 1.6215 3.1244 1.5873 3.138l-0.049 13.527-3.523 0.0216-0.049-13.549c-0.034-0.0136 0.1235-2.2409 1.5874-3.138l0.099-1.2767 0.1823 0.00045z"/>
        <path id="path3264" style="fill-rule:evenodd;stroke:#000000;stroke-width:1.1399px;fill:#000000" d="m742.55 342.91h310.51v94.003h-311.65l1.1386-94.003z"/>
      </g>
      <g id="g3266" transform="matrix(.20584 0 0 .20584 61.219 38.348)">
        <path id="path3268" style="fill-rule:evenodd;stroke:#000000;stroke-width:.23449;fill:#000000" d="m519.06 312.77 0.16278 1.2767c1.4458 0.89706 1.6015 3.1244 1.5678 3.138l-0.0485 13.527-3.4796 0.0216-0.0485-13.549c-0.0338-0.0136 0.12193-2.2409 1.5678-3.138l0.0982-1.2767 0.18002 0.00045z"/>
        <path id="path3271" style="fill-rule:evenodd;stroke:#000000;stroke-width:.23449;fill:#000000" d="m540.56 312.71 0.16278 1.2767c1.4458 0.89706 1.6015 3.1244 1.5678 3.138l-0.0485 13.527-3.4796 0.0216-0.0485-13.549c-0.0338-0.0136 0.12193-2.2409 1.5678-3.138l0.0982-1.2767 0.18002 0.00045z"/>
        <path id="path3273" style="fill-rule:evenodd;stroke:#000000;stroke-width:.23449;fill:#000000" d="m561.56 312.71 0.16278 1.2767c1.4458 0.89706 1.6015 3.1244 1.5678 3.138l-0.0485 13.527-3.4796 0.0216-0.0485-13.549c-0.0338-0.0136 0.12193-2.2409 1.5678-3.138l0.0982-1.2767 0.18002 0.00045z"/>
        <path id="path3275" style="fill-rule:evenodd;stroke:#000000;stroke-width:.23449;fill:#000000" d="m583.06 312.71 0.16278 1.2767c1.4458 0.89706 1.6015 3.1244 1.5678 3.138l-0.0485 13.527-3.4796 0.0216-0.0485-13.549c-0.0338-0.0136 0.12193-2.2409 1.5678-3.138l0.0982-1.2767 0.18002 0.00045z"/>
        <path id="path3277" style="fill-rule:evenodd;stroke:#000000;stroke-width:.23449;fill:#000000" d="m604.19 312.71 0.16278 1.2767c1.4458 0.89706 1.6015 3.1244 1.5678 3.138l-0.0485 13.527-3.4796 0.0216-0.0485-13.549c-0.0338-0.0136 0.12193-2.2409 1.5678-3.138l0.0982-1.2767 0.18002 0.00045z"/>
        <path id="path3279" style="fill-rule:evenodd;stroke:#000000;stroke-width:.23449;fill:#000000" d="m625.31 312.71 0.16278 1.2767c1.4458 0.89706 1.6015 3.1244 1.5678 3.138l-0.0485 13.527-3.4796 0.0216-0.0485-13.549c-0.0338-0.0136 0.12193-2.2409 1.5678-3.138l0.0982-1.2767 0.18002 0.00045z"/>
        <path id="path3281" style="fill-rule:evenodd;stroke:#000000;stroke-width:.23449;fill:#000000" d="m645.94 312.71 0.16278 1.2767c1.4458 0.89706 1.6015 3.1244 1.5678 3.138l-0.0485 13.527-3.4796 0.0216-0.0485-13.549c-0.0338-0.0136 0.12193-2.2409 1.5678-3.138l0.0982-1.2767 0.18002 0.00045z"/>
        <path id="path3283" style="fill-rule:evenodd;stroke:#000000;stroke-width:.23449;fill:#000000" d="m667.19 312.71 0.16278 1.2767c1.4458 0.89706 1.6015 3.1244 1.5678 3.138l-0.0485 13.527-3.4796 0.0216-0.0485-13.549c-0.0338-0.0136 0.12193-2.2409 1.5678-3.138l0.0982-1.2767 0.18002 0.00045z"/>
        <path id="path3285" style="fill-rule:evenodd;stroke:#000000;stroke-width:.23449;fill:#000000" d="m688.56 312.71 0.16278 1.2767c1.4458 0.89706 1.6015 3.1244 1.5678 3.138l-0.0485 13.527-3.4796 0.0216-0.0485-13.549c-0.0338-0.0136 0.12193-2.2409 1.5678-3.138l0.0982-1.2767 0.18002 0.00045z"/>
        <path id="path3287" style="fill-rule:evenodd;stroke:#000000;stroke-width:.23449;fill:#000000" d="m710.06 312.71 0.16278 1.2767c1.4458 0.89706 1.6015 3.1244 1.5678 3.138l-0.0485 13.527-3.4796 0.0216-0.0485-13.549c-0.0338-0.0136 0.12193-2.2409 1.5678-3.138l0.0982-1.2767 0.18002 0.00045z"/>
        <path id="path3289" style="fill-rule:evenodd;stroke:#000000;stroke-width:1.1562px;fill:#000000" d="m469.13 330.87h293.58v105.98h-294.88l1.3017-105.98z"/>
      </g>
    </g>
  </g>
  <metadata>
    <rdf:RDF>
      <cc:Work>
        <dc:format>image/svg+xml</dc:format>
        <dc:type rdf:resource="http://purl.org/dc/dcmitype/StillImage"/>
        <cc:license rdf:resource="http://creativecommons.org/licenses/publicdomain/"/>
        <dc:publisher>
          <cc:Agent rdf:about="http://openclipart.org/">
            <dc:title>Openclipart</dc:title>
          </cc:Agent>
        </dc:publisher>
        <dc:title>London skyline</dc:title>
        <dc:date>2010-03-13T18:44:25</dc:date>
        <dc:description>The London skyline created by me.</dc:description>
        <dc:source>https://openclipart.org/detail/31393/london-skyline-by-ryrych</dc:source>
        <dc:creator>
          <cc:Agent>
            <dc:title>ryrych</dc:title>
          </cc:Agent>
        </dc:creator>
        <dc:subject>
          <rdf:Bag>
            <rdf:li>london</rdf:li>
            <rdf:li>silhouette</rdf:li>
            <rdf:li>skyline</rdf:li>
          </rdf:Bag>
        </dc:subject>
      </cc:Work>
      <cc:License rdf:about="http://creativecommons.org/licenses/publicdomain/">
        <cc:permits rdf:resource="http://creativecommons.org/ns#Reproduction"/>
        <cc:permits rdf:resource="http://creativecommons.org/ns#Distribution"/>
        <cc:permits rdf:resource="http://creativecommons.org/ns#DerivativeWorks"/>
      </cc:License>
    </rdf:RDF>
  </metadata>
</svg>
